<svg width="954" height="99" viewBox="0 0 954 99" fill="none" xmlns="http://www.w3.org/2000/svg">
<g clip-path="url(#clip0)">
<path d="M9.02686 13.5864C9.02686 11.8091 9.20801 10.3804 9.57031 9.30029C9.93945 8.21338 10.4829 7.37598 11.2007 6.78809C11.9253 6.2002 12.8345 5.90625 13.9282 5.90625C14.7349 5.90625 15.4424 6.07031 16.0508 6.39844C16.6592 6.71973 17.1616 7.18799 17.5581 7.80322C17.9546 8.41162 18.2656 9.15674 18.4912 10.0386C18.7168 10.9136 18.8296 12.0962 18.8296 13.5864C18.8296 15.3501 18.6484 16.7754 18.2861 17.8623C17.9238 18.9424 17.3804 19.7798 16.6558 20.3745C15.938 20.9624 15.0288 21.2563 13.9282 21.2563C12.479 21.2563 11.3408 20.7368 10.5137 19.6978C9.52246 18.4468 9.02686 16.4097 9.02686 13.5864ZM10.9238 13.5864C10.9238 16.0542 11.2109 17.6982 11.7852 18.5186C12.3662 19.332 13.0806 19.7388 13.9282 19.7388C14.7759 19.7388 15.4868 19.3286 16.061 18.5083C16.6421 17.688 16.9326 16.0474 16.9326 13.5864C16.9326 11.1118 16.6421 9.46777 16.061 8.6543C15.4868 7.84082 14.769 7.43408 13.9077 7.43408C13.0601 7.43408 12.3833 7.79297 11.8774 8.51074C11.2417 9.42676 10.9238 11.1187 10.9238 13.5864Z" fill="#71E5FF"/>
<path d="M0 0V-0.8H-0.8V0H0ZM28 0H28.8V-0.8H28V0ZM28 28V28.8H28.8V28H28ZM0 28H-0.8V28.8H0V28ZM0 0.8H28V-0.8H0V0.8ZM27.2 0V28H28.8V0H27.2ZM28 27.2H0V28.8H28V27.2ZM0.8 28V0H-0.8V28H0.8Z" fill="black"/>
<path d="M38.2269 13.5864C38.2269 11.8091 38.408 10.3804 38.7703 9.30029C39.1395 8.21338 39.6829 7.37598 40.4007 6.78809C41.1253 6.2002 42.0345 5.90625 43.1282 5.90625C43.9349 5.90625 44.6424 6.07031 45.2508 6.39844C45.8592 6.71973 46.3616 7.18799 46.7581 7.80322C47.1546 8.41162 47.4656 9.15674 47.6912 10.0386C47.9168 10.9136 48.0296 12.0962 48.0296 13.5864C48.0296 15.3501 47.8484 16.7754 47.4861 17.8623C47.1238 18.9424 46.5804 19.7798 45.8558 20.3745C45.138 20.9624 44.2288 21.2563 43.1282 21.2563C41.679 21.2563 40.5408 20.7368 39.7137 19.6978C38.7225 18.4468 38.2269 16.4097 38.2269 13.5864ZM40.1238 13.5864C40.1238 16.0542 40.4109 17.6982 40.9852 18.5186C41.5662 19.332 42.2806 19.7388 43.1282 19.7388C43.9759 19.7388 44.6868 19.3286 45.261 18.5083C45.8421 17.688 46.1326 16.0474 46.1326 13.5864C46.1326 11.1118 45.8421 9.46777 45.261 8.6543C44.6868 7.84082 43.9691 7.43408 43.1077 7.43408C42.2601 7.43408 41.5833 7.79297 41.0775 8.51074C40.4417 9.42676 40.1238 11.1187 40.1238 13.5864Z" fill="#7F43FF"/>
<path d="M29.2 0V-0.8H28.4V0H29.2ZM57.2 0H58V-0.8H57.2V0ZM57.2 28V28.8H58V28H57.2ZM29.2 28H28.4V28.8H29.2V28ZM29.2 0.8H57.2V-0.8H29.2V0.8ZM56.4 0V28H58V0H56.4ZM57.2 27.2H29.2V28.8H57.2V27.2ZM30 28V0H28.4V28H30Z" fill="black"/>
<path d="M74.379 21H72.5333V9.23877C72.089 9.6626 71.5045 10.0864 70.7799 10.5103C70.0621 10.9341 69.4161 11.252 68.8419 11.4639V9.67969C69.8741 9.19434 70.7765 8.60645 71.5489 7.91602C72.3214 7.22559 72.8683 6.55566 73.1895 5.90625H74.379V21Z" fill="#7F43FF"/>
<path d="M58.4 0V-0.8H57.6V0H58.4ZM86.4 0H87.2V-0.8H86.4V0ZM86.4 28V28.8H87.2V28H86.4ZM58.4 28H57.6V28.8H58.4V28ZM58.4 0.8H86.4V-0.8H58.4V0.8ZM85.6 0V28H87.2V0H85.6ZM86.4 27.2H58.4V28.8H86.4V27.2ZM59.2 28V0H57.6V28H59.2Z" fill="black"/>
<path d="M103.579 21H101.733V9.23877C101.289 9.6626 100.704 10.0864 99.9799 10.5103C99.2621 10.9341 98.6161 11.252 98.0419 11.4639V9.67969C99.0741 9.19434 99.9765 8.60645 100.749 7.91602C101.521 7.22559 102.068 6.55566 102.39 5.90625H103.579V21Z" fill="#7F43FF"/>
<path d="M87.6 0V-0.8H86.8V0H87.6ZM115.6 0H116.4V-0.8H115.6V0ZM115.6 28V28.8H116.4V28H115.6ZM87.6 28H86.8V28.8H87.6V28ZM87.6 0.8H115.6V-0.8H87.6V0.8ZM114.8 0V28H116.4V0H114.8ZM115.6 27.2H87.6V28.8H115.6V27.2ZM88.4 28V0H86.8V28H88.4Z" fill="black"/>
<path d="M132.779 21H130.933V9.23877C130.489 9.6626 129.904 10.0864 129.18 10.5103C128.462 10.9341 127.816 11.252 127.242 11.4639V9.67969C128.274 9.19434 129.176 8.60645 129.949 7.91602C130.721 7.22559 131.268 6.55566 131.59 5.90625H132.779V21Z" fill="#7F43FF"/>
<path d="M116.8 0V-0.8H116V0H116.8ZM144.8 0H145.6V-0.8H144.8V0ZM144.8 28V28.8H145.6V28H144.8ZM116.8 28H116V28.8H116.8V28ZM116.8 0.8H144.8V-0.8H116.8V0.8ZM144 0V28H145.6V0H144ZM144.8 27.2H116.8V28.8H144.8V27.2ZM117.6 28V0H116V28H117.6Z" fill="black"/>
<path d="M161.979 21H160.133V9.23877C159.689 9.6626 159.104 10.0864 158.38 10.5103C157.662 10.9341 157.016 11.252 156.442 11.4639V9.67969C157.474 9.19434 158.376 8.60645 159.149 7.91602C159.921 7.22559 160.468 6.55566 160.79 5.90625H161.979V21Z" fill="#7F43FF"/>
<path d="M146 0V-0.8H145.2V0H146ZM174 0H174.8V-0.8H174V0ZM174 28V28.8H174.8V28H174ZM146 28H145.2V28.8H146V28ZM146 0.8H174V-0.8H146V0.8ZM173.2 0V28H174.8V0H173.2ZM174 27.2H146V28.8H174V27.2ZM146.8 28V0H145.2V28H146.8Z" fill="black"/>
<path d="M191.179 21H189.333V9.23877C188.889 9.6626 188.304 10.0864 187.58 10.5103C186.862 10.9341 186.216 11.252 185.642 11.4639V9.67969C186.674 9.19434 187.576 8.60645 188.349 7.91602C189.121 7.22559 189.668 6.55566 189.99 5.90625H191.179V21Z" fill="#7F43FF"/>
<path d="M175.2 0V-0.8H174.4V0H175.2ZM203.2 0H204V-0.8H203.2V0ZM203.2 28V28.8H204V28H203.2ZM175.2 28H174.4V28.8H175.2V28ZM175.2 0.8H203.2V-0.8H175.2V0.8ZM202.4 0V28H204V0H202.4ZM203.2 27.2H175.2V28.8H203.2V27.2ZM176 28V0H174.4V28H176Z" fill="black"/>
<path d="M220.379 21H218.533V9.23877C218.089 9.6626 217.504 10.0864 216.78 10.5103C216.062 10.9341 215.416 11.252 214.842 11.4639V9.67969C215.874 9.19434 216.776 8.60645 217.549 7.91602C218.321 7.22559 218.868 6.55566 219.19 5.90625H220.379V21Z" fill="#7F43FF"/>
<path d="M204.4 0V-0.8H203.6V0H204.4ZM232.4 0H233.2V-0.8H232.4V0ZM232.4 28V28.8H233.2V28H232.4ZM204.4 28H203.6V28.8H204.4V28ZM204.4 0.8H232.4V-0.8H204.4V0.8ZM231.6 0V28H233.2V0H231.6ZM232.4 27.2H204.4V28.8H232.4V27.2ZM205.2 28V0H203.6V28H205.2Z" fill="black"/>
</g>
<g clip-path="url(#clip1)">
<path d="M249.427 13.5864C249.427 11.8091 249.608 10.3804 249.97 9.30029C250.339 8.21338 250.883 7.37598 251.601 6.78809C252.325 6.2002 253.234 5.90625 254.328 5.90625C255.135 5.90625 255.842 6.07031 256.451 6.39844C257.059 6.71973 257.562 7.18799 257.958 7.80322C258.355 8.41162 258.666 9.15674 258.891 10.0386C259.117 10.9136 259.23 12.0962 259.23 13.5864C259.23 15.3501 259.048 16.7754 258.686 17.8623C258.324 18.9424 257.78 19.7798 257.056 20.3745C256.338 20.9624 255.429 21.2563 254.328 21.2563C252.879 21.2563 251.741 20.7368 250.914 19.6978C249.922 18.4468 249.427 16.4097 249.427 13.5864ZM251.324 13.5864C251.324 16.0542 251.611 17.6982 252.185 18.5186C252.766 19.332 253.481 19.7388 254.328 19.7388C255.176 19.7388 255.887 19.3286 256.461 18.5083C257.042 17.688 257.333 16.0474 257.333 13.5864C257.333 11.1118 257.042 9.46777 256.461 8.6543C255.887 7.84082 255.169 7.43408 254.308 7.43408C253.46 7.43408 252.783 7.79297 252.277 8.51074C251.642 9.42676 251.324 11.1187 251.324 13.5864Z" fill="#7F43FF"/>
<path d="M240.4 0V-0.8H239.6V0H240.4ZM268.4 0H269.2V-0.8H268.4V0ZM268.4 28V28.8H269.2V28H268.4ZM240.4 28H239.6V28.8H240.4V28ZM240.4 0.8H268.4V-0.8H240.4V0.8ZM267.6 0V28H269.2V0H267.6ZM268.4 27.2H240.4V28.8H268.4V27.2ZM241.2 28V0H239.6V28H241.2Z" fill="black"/>
<path d="M285.579 21H283.733V9.23877C283.289 9.6626 282.704 10.0864 281.98 10.5103C281.262 10.9341 280.616 11.252 280.042 11.4639V9.67969C281.074 9.19434 281.976 8.60645 282.749 7.91602C283.521 7.22559 284.068 6.55566 284.39 5.90625H285.579V21Z" fill="#FF8C22"/>
<path d="M269.6 0V-0.8H268.8V0H269.6ZM297.6 0H298.4V-0.8H297.6V0ZM297.6 28V28.8H298.4V28H297.6ZM269.6 28H268.8V28.8H269.6V28ZM269.6 0.8H297.6V-0.8H269.6V0.8ZM296.8 0V28H298.4V0H296.8ZM297.6 27.2H269.6V28.8H297.6V27.2ZM270.4 28V0H268.8V28H270.4Z" fill="black"/>
<path d="M307.827 13.5864C307.827 11.8091 308.008 10.3804 308.37 9.30029C308.739 8.21338 309.283 7.37598 310.001 6.78809C310.725 6.2002 311.634 5.90625 312.728 5.90625C313.535 5.90625 314.242 6.07031 314.851 6.39844C315.459 6.71973 315.962 7.18799 316.358 7.80322C316.755 8.41162 317.066 9.15674 317.291 10.0386C317.517 10.9136 317.63 12.0962 317.63 13.5864C317.63 15.3501 317.448 16.7754 317.086 17.8623C316.724 18.9424 316.18 19.7798 315.456 20.3745C314.738 20.9624 313.829 21.2563 312.728 21.2563C311.279 21.2563 310.141 20.7368 309.314 19.6978C308.322 18.4468 307.827 16.4097 307.827 13.5864ZM309.724 13.5864C309.724 16.0542 310.011 17.6982 310.585 18.5186C311.166 19.332 311.881 19.7388 312.728 19.7388C313.576 19.7388 314.287 19.3286 314.861 18.5083C315.442 17.688 315.733 16.0474 315.733 13.5864C315.733 11.1118 315.442 9.46777 314.861 8.6543C314.287 7.84082 313.569 7.43408 312.708 7.43408C311.86 7.43408 311.183 7.79297 310.677 8.51074C310.042 9.42676 309.724 11.1187 309.724 13.5864Z" fill="#FF8C22"/>
<path d="M298.8 0V-0.8H298V0H298.8ZM326.8 0H327.6V-0.8H326.8V0ZM326.8 28V28.8H327.6V28H326.8ZM298.8 28H298V28.8H298.8V28ZM298.8 0.8H326.8V-0.8H298.8V0.8ZM326 0V28H327.6V0H326ZM326.8 27.2H298.8V28.8H326.8V27.2ZM299.6 28V0H298V28H299.6Z" fill="black"/>
<path d="M337.027 13.5864C337.027 11.8091 337.208 10.3804 337.57 9.30029C337.939 8.21338 338.483 7.37598 339.201 6.78809C339.925 6.2002 340.834 5.90625 341.928 5.90625C342.735 5.90625 343.442 6.07031 344.051 6.39844C344.659 6.71973 345.162 7.18799 345.558 7.80322C345.955 8.41162 346.266 9.15674 346.491 10.0386C346.717 10.9136 346.83 12.0962 346.83 13.5864C346.83 15.3501 346.648 16.7754 346.286 17.8623C345.924 18.9424 345.38 19.7798 344.656 20.3745C343.938 20.9624 343.029 21.2563 341.928 21.2563C340.479 21.2563 339.341 20.7368 338.514 19.6978C337.522 18.4468 337.027 16.4097 337.027 13.5864ZM338.924 13.5864C338.924 16.0542 339.211 17.6982 339.785 18.5186C340.366 19.332 341.081 19.7388 341.928 19.7388C342.776 19.7388 343.487 19.3286 344.061 18.5083C344.642 17.688 344.933 16.0474 344.933 13.5864C344.933 11.1118 344.642 9.46777 344.061 8.6543C343.487 7.84082 342.769 7.43408 341.908 7.43408C341.06 7.43408 340.383 7.79297 339.877 8.51074C339.242 9.42676 338.924 11.1187 338.924 13.5864Z" fill="#FF8C22"/>
<path d="M328 0V-0.8H327.2V0H328ZM356 0H356.8V-0.8H356V0ZM356 28V28.8H356.8V28H356ZM328 28H327.2V28.8H328V28ZM328 0.8H356V-0.8H328V0.8ZM355.2 0V28H356.8V0H355.2ZM356 27.2H328V28.8H356V27.2ZM328.8 28V0H327.2V28H328.8Z" fill="black"/>
<path d="M373.179 21H371.333V9.23877C370.889 9.6626 370.305 10.0864 369.58 10.5103C368.862 10.9341 368.216 11.252 367.642 11.4639V9.67969C368.674 9.19434 369.576 8.60645 370.349 7.91602C371.121 7.22559 371.668 6.55566 371.99 5.90625H373.179V21Z" fill="#FF8C22"/>
<path d="M357.2 0V-0.8H356.4V0H357.2ZM385.2 0H386V-0.8H385.2V0ZM385.2 28V28.8H386V28H385.2ZM357.2 28H356.4V28.8H357.2V28ZM357.2 0.8H385.2V-0.8H357.2V0.8ZM384.4 0V28H386V0H384.4ZM385.2 27.2H357.2V28.8H385.2V27.2ZM358 28V0H356.4V28H358Z" fill="black"/>
<path d="M402.379 21H400.533V9.23877C400.089 9.6626 399.504 10.0864 398.78 10.5103C398.062 10.9341 397.416 11.252 396.842 11.4639V9.67969C397.874 9.19434 398.776 8.60645 399.549 7.91602C400.321 7.22559 400.868 6.55566 401.19 5.90625H402.379V21Z" fill="#FF8C22"/>
<path d="M386.4 0V-0.8H385.6V0H386.4ZM414.4 0H415.2V-0.8H414.4V0ZM414.4 28V28.8H415.2V28H414.4ZM386.4 28H385.6V28.8H386.4V28ZM386.4 0.8H414.4V-0.8H386.4V0.8ZM413.6 0V28H415.2V0H413.6ZM414.4 27.2H386.4V28.8H414.4V27.2ZM387.2 28V0H385.6V28H387.2Z" fill="black"/>
<path d="M424.627 13.5864C424.627 11.8091 424.808 10.3804 425.17 9.30029C425.539 8.21338 426.083 7.37598 426.801 6.78809C427.525 6.2002 428.434 5.90625 429.528 5.90625C430.335 5.90625 431.042 6.07031 431.651 6.39844C432.259 6.71973 432.762 7.18799 433.158 7.80322C433.555 8.41162 433.866 9.15674 434.091 10.0386C434.317 10.9136 434.43 12.0962 434.43 13.5864C434.43 15.3501 434.248 16.7754 433.886 17.8623C433.524 18.9424 432.98 19.7798 432.256 20.3745C431.538 20.9624 430.629 21.2563 429.528 21.2563C428.079 21.2563 426.941 20.7368 426.114 19.6978C425.122 18.4468 424.627 16.4097 424.627 13.5864ZM426.524 13.5864C426.524 16.0542 426.811 17.6982 427.385 18.5186C427.966 19.332 428.681 19.7388 429.528 19.7388C430.376 19.7388 431.087 19.3286 431.661 18.5083C432.242 17.688 432.533 16.0474 432.533 13.5864C432.533 11.1118 432.242 9.46777 431.661 8.6543C431.087 7.84082 430.369 7.43408 429.508 7.43408C428.66 7.43408 427.983 7.79297 427.477 8.51074C426.842 9.42676 426.524 11.1187 426.524 13.5864Z" fill="#FF8C22"/>
<path d="M415.6 0V-0.8H414.8V0H415.6ZM443.6 0H444.4V-0.8H443.6V0ZM443.6 28V28.8H444.4V28H443.6ZM415.6 28H414.8V28.8H415.6V28ZM415.6 0.8H443.6V-0.8H415.6V0.8ZM442.8 0V28H444.4V0H442.8ZM443.6 27.2H415.6V28.8H443.6V27.2ZM416.4 28V0H414.8V28H416.4Z" fill="black"/>
<path d="M453.827 13.5864C453.827 11.8091 454.008 10.3804 454.37 9.30029C454.739 8.21338 455.283 7.37598 456.001 6.78809C456.725 6.2002 457.634 5.90625 458.728 5.90625C459.535 5.90625 460.242 6.07031 460.851 6.39844C461.459 6.71973 461.962 7.18799 462.358 7.80322C462.755 8.41162 463.066 9.15674 463.291 10.0386C463.517 10.9136 463.63 12.0962 463.63 13.5864C463.63 15.3501 463.448 16.7754 463.086 17.8623C462.724 18.9424 462.18 19.7798 461.456 20.3745C460.738 20.9624 459.829 21.2563 458.728 21.2563C457.279 21.2563 456.141 20.7368 455.314 19.6978C454.322 18.4468 453.827 16.4097 453.827 13.5864ZM455.724 13.5864C455.724 16.0542 456.011 17.6982 456.585 18.5186C457.166 19.332 457.881 19.7388 458.728 19.7388C459.576 19.7388 460.287 19.3286 460.861 18.5083C461.442 17.688 461.733 16.0474 461.733 13.5864C461.733 11.1118 461.442 9.46777 460.861 8.6543C460.287 7.84082 459.569 7.43408 458.708 7.43408C457.86 7.43408 457.183 7.79297 456.677 8.51074C456.042 9.42676 455.724 11.1187 455.724 13.5864Z" fill="#FF8C22"/>
<path d="M444.8 0V-0.8H444V0H444.8ZM472.8 0H473.6V-0.8H472.8V0ZM472.8 28V28.8H473.6V28H472.8ZM444.8 28H444V28.8H444.8V28ZM444.8 0.8H472.8V-0.8H444.8V0.8ZM472 0V28H473.6V0H472ZM472.8 27.2H444.8V28.8H472.8V27.2ZM445.6 28V0H444V28H445.6Z" fill="black"/>
</g>
<g clip-path="url(#clip2)">
<path d="M496.779 21H494.933V9.23877C494.489 9.6626 493.904 10.0864 493.18 10.5103C492.462 10.9341 491.816 11.252 491.242 11.4639V9.67969C492.274 9.19434 493.176 8.60645 493.949 7.91602C494.721 7.22559 495.268 6.55566 495.59 5.90625H496.779V21Z" fill="#FF8C22"/>
<path d="M480.8 0V-0.8H480V0H480.8ZM508.8 0H509.6V-0.8H508.8V0ZM508.8 28V28.8H509.6V28H508.8ZM480.8 28H480V28.8H480.8V28ZM480.8 0.8H508.8V-0.8H480.8V0.8ZM508 0V28H509.6V0H508ZM508.8 27.2H480.8V28.8H508.8V27.2ZM481.6 28V0H480V28H481.6Z" fill="black"/>
<path d="M525.979 21H524.133V9.23877C523.689 9.6626 523.104 10.0864 522.38 10.5103C521.662 10.9341 521.016 11.252 520.442 11.4639V9.67969C521.474 9.19434 522.376 8.60645 523.149 7.91602C523.921 7.22559 524.468 6.55566 524.79 5.90625H525.979V21Z" fill="#FF8C22"/>
<path d="M510 0V-0.8H509.2V0H510ZM538 0H538.8V-0.8H538V0ZM538 28V28.8H538.8V28H538ZM510 28H509.2V28.8H510V28ZM510 0.8H538V-0.8H510V0.8ZM537.2 0V28H538.8V0H537.2ZM538 27.2H510V28.8H538V27.2ZM510.8 28V0H509.2V28H510.8Z" fill="black"/>
<path d="M548.227 13.5864C548.227 11.8091 548.408 10.3804 548.77 9.30029C549.139 8.21338 549.683 7.37598 550.401 6.78809C551.125 6.2002 552.034 5.90625 553.128 5.90625C553.935 5.90625 554.642 6.07031 555.251 6.39844C555.859 6.71973 556.362 7.18799 556.758 7.80322C557.155 8.41162 557.466 9.15674 557.691 10.0386C557.917 10.9136 558.03 12.0962 558.03 13.5864C558.03 15.3501 557.848 16.7754 557.486 17.8623C557.124 18.9424 556.58 19.7798 555.856 20.3745C555.138 20.9624 554.229 21.2563 553.128 21.2563C551.679 21.2563 550.541 20.7368 549.714 19.6978C548.722 18.4468 548.227 16.4097 548.227 13.5864ZM550.124 13.5864C550.124 16.0542 550.411 17.6982 550.985 18.5186C551.566 19.332 552.281 19.7388 553.128 19.7388C553.976 19.7388 554.687 19.3286 555.261 18.5083C555.842 17.688 556.133 16.0474 556.133 13.5864C556.133 11.1118 555.842 9.46777 555.261 8.6543C554.687 7.84082 553.969 7.43408 553.108 7.43408C552.26 7.43408 551.583 7.79297 551.077 8.51074C550.442 9.42676 550.124 11.1187 550.124 13.5864Z" fill="#FF8C22"/>
<path d="M539.2 0V-0.8H538.4V0H539.2ZM567.2 0H568V-0.8H567.2V0ZM567.2 28V28.8H568V28H567.2ZM539.2 28H538.4V28.8H539.2V28ZM539.2 0.8H567.2V-0.8H539.2V0.8ZM566.4 0V28H568V0H566.4ZM567.2 27.2H539.2V28.8H567.2V27.2ZM540 28V0H538.4V28H540Z" fill="black"/>
<path d="M577.427 13.5864C577.427 11.8091 577.608 10.3804 577.97 9.30029C578.339 8.21338 578.883 7.37598 579.601 6.78809C580.325 6.2002 581.234 5.90625 582.328 5.90625C583.135 5.90625 583.842 6.07031 584.451 6.39844C585.059 6.71973 585.562 7.18799 585.958 7.80322C586.355 8.41162 586.666 9.15674 586.891 10.0386C587.117 10.9136 587.23 12.0962 587.23 13.5864C587.23 15.3501 587.048 16.7754 586.686 17.8623C586.324 18.9424 585.78 19.7798 585.056 20.3745C584.338 20.9624 583.429 21.2563 582.328 21.2563C580.879 21.2563 579.741 20.7368 578.914 19.6978C577.922 18.4468 577.427 16.4097 577.427 13.5864ZM579.324 13.5864C579.324 16.0542 579.611 17.6982 580.185 18.5186C580.766 19.332 581.481 19.7388 582.328 19.7388C583.176 19.7388 583.887 19.3286 584.461 18.5083C585.042 17.688 585.333 16.0474 585.333 13.5864C585.333 11.1118 585.042 9.46777 584.461 8.6543C583.887 7.84082 583.169 7.43408 582.308 7.43408C581.46 7.43408 580.783 7.79297 580.277 8.51074C579.642 9.42676 579.324 11.1187 579.324 13.5864Z" fill="#FF8C22"/>
<path d="M568.4 0V-0.8H567.6V0H568.4ZM596.4 0H597.2V-0.8H596.4V0ZM596.4 28V28.8H597.2V28H596.4ZM568.4 28H567.6V28.8H568.4V28ZM568.4 0.8H596.4V-0.8H568.4V0.8ZM595.6 0V28H597.2V0H595.6ZM596.4 27.2H568.4V28.8H596.4V27.2ZM569.2 28V0H567.6V28H569.2Z" fill="black"/>
<path d="M613.579 21H611.733V9.23877C611.289 9.6626 610.704 10.0864 609.98 10.5103C609.262 10.9341 608.616 11.252 608.042 11.4639V9.67969C609.074 9.19434 609.976 8.60645 610.749 7.91602C611.521 7.22559 612.068 6.55566 612.39 5.90625H613.579V21Z" fill="#FF8C22"/>
<path d="M597.6 0V-0.8H596.8V0H597.6ZM625.6 0H626.4V-0.8H625.6V0ZM625.6 28V28.8H626.4V28H625.6ZM597.6 28H596.8V28.8H597.6V28ZM597.6 0.8H625.6V-0.8H597.6V0.8ZM624.8 0V28H626.4V0H624.8ZM625.6 27.2H597.6V28.8H625.6V27.2ZM598.4 28V0H596.8V28H598.4Z" fill="black"/>
<path d="M642.779 21H640.933V9.23877C640.489 9.6626 639.904 10.0864 639.18 10.5103C638.462 10.9341 637.816 11.252 637.242 11.4639V9.67969C638.274 9.19434 639.176 8.60645 639.949 7.91602C640.721 7.22559 641.268 6.55566 641.59 5.90625H642.779V21Z" fill="#FF8C22"/>
<path d="M626.8 0V-0.8H626V0H626.8ZM654.8 0H655.6V-0.8H654.8V0ZM654.8 28V28.8H655.6V28H654.8ZM626.8 28H626V28.8H626.8V28ZM626.8 0.8H654.8V-0.8H626.8V0.8ZM654 0V28H655.6V0H654ZM654.8 27.2H626.8V28.8H654.8V27.2ZM627.6 28V0H626V28H627.6Z" fill="black"/>
<path d="M665.027 13.5864C665.027 11.8091 665.208 10.3804 665.57 9.30029C665.939 8.21338 666.483 7.37598 667.201 6.78809C667.925 6.2002 668.834 5.90625 669.928 5.90625C670.735 5.90625 671.442 6.07031 672.051 6.39844C672.659 6.71973 673.162 7.18799 673.558 7.80322C673.955 8.41162 674.266 9.15674 674.491 10.0386C674.717 10.9136 674.83 12.0962 674.83 13.5864C674.83 15.3501 674.648 16.7754 674.286 17.8623C673.924 18.9424 673.38 19.7798 672.656 20.3745C671.938 20.9624 671.029 21.2563 669.928 21.2563C668.479 21.2563 667.341 20.7368 666.514 19.6978C665.522 18.4468 665.027 16.4097 665.027 13.5864ZM666.924 13.5864C666.924 16.0542 667.211 17.6982 667.785 18.5186C668.366 19.332 669.081 19.7388 669.928 19.7388C670.776 19.7388 671.487 19.3286 672.061 18.5083C672.642 17.688 672.933 16.0474 672.933 13.5864C672.933 11.1118 672.642 9.46777 672.061 8.6543C671.487 7.84082 670.769 7.43408 669.908 7.43408C669.06 7.43408 668.383 7.79297 667.877 8.51074C667.242 9.42676 666.924 11.1187 666.924 13.5864Z" fill="#FF8C22"/>
<path d="M656 0V-0.8H655.2V0H656ZM684 0H684.8V-0.8H684V0ZM684 28V28.8H684.8V28H684ZM656 28H655.2V28.8H656V28ZM656 0.8H684V-0.8H656V0.8ZM683.2 0V28H684.8V0H683.2ZM684 27.2H656V28.8H684V27.2ZM656.8 28V0H655.2V28H656.8Z" fill="black"/>
<path d="M694.227 13.5864C694.227 11.8091 694.408 10.3804 694.77 9.30029C695.139 8.21338 695.683 7.37598 696.401 6.78809C697.125 6.2002 698.034 5.90625 699.128 5.90625C699.935 5.90625 700.642 6.07031 701.251 6.39844C701.859 6.71973 702.362 7.18799 702.758 7.80322C703.155 8.41162 703.466 9.15674 703.691 10.0386C703.917 10.9136 704.03 12.0962 704.03 13.5864C704.03 15.3501 703.848 16.7754 703.486 17.8623C703.124 18.9424 702.58 19.7798 701.856 20.3745C701.138 20.9624 700.229 21.2563 699.128 21.2563C697.679 21.2563 696.541 20.7368 695.714 19.6978C694.722 18.4468 694.227 16.4097 694.227 13.5864ZM696.124 13.5864C696.124 16.0542 696.411 17.6982 696.985 18.5186C697.566 19.332 698.281 19.7388 699.128 19.7388C699.976 19.7388 700.687 19.3286 701.261 18.5083C701.842 17.688 702.133 16.0474 702.133 13.5864C702.133 11.1118 701.842 9.46777 701.261 8.6543C700.687 7.84082 699.969 7.43408 699.108 7.43408C698.26 7.43408 697.583 7.79297 697.077 8.51074C696.442 9.42676 696.124 11.1187 696.124 13.5864Z" fill="#FF8C22"/>
<path d="M685.2 0V-0.8H684.4V0H685.2ZM713.2 0H714V-0.8H713.2V0ZM713.2 28V28.8H714V28H713.2ZM685.2 28H684.4V28.8H685.2V28ZM685.2 0.8H713.2V-0.8H685.2V0.8ZM712.4 0V28H714V0H712.4ZM713.2 27.2H685.2V28.8H713.2V27.2ZM686 28V0H684.4V28H686Z" fill="black"/>
</g>
<g clip-path="url(#clip3)">
<path d="M737.179 21H735.333V9.23877C734.889 9.6626 734.304 10.0864 733.58 10.5103C732.862 10.9341 732.216 11.252 731.642 11.4639V9.67969C732.674 9.19434 733.576 8.60645 734.349 7.91602C735.121 7.22559 735.668 6.55566 735.99 5.90625H737.179V21Z" fill="#FF8C22"/>
<path d="M721.2 0V-0.8H720.4V0H721.2ZM749.2 0H750V-0.8H749.2V0ZM749.2 28V28.8H750V28H749.2ZM721.2 28H720.4V28.8H721.2V28ZM721.2 0.8H749.2V-0.8H721.2V0.8ZM748.4 0V28H750V0H748.4ZM749.2 27.2H721.2V28.8H749.2V27.2ZM722 28V0H720.4V28H722Z" fill="black"/>
<path d="M766.379 21H764.533V9.23877C764.089 9.6626 763.504 10.0864 762.78 10.5103C762.062 10.9341 761.416 11.252 760.842 11.4639V9.67969C761.874 9.19434 762.776 8.60645 763.549 7.91602C764.321 7.22559 764.868 6.55566 765.19 5.90625H766.379V21Z" fill="#FF8C22"/>
<path d="M750.4 0V-0.8H749.6V0H750.4ZM778.4 0H779.2V-0.8H778.4V0ZM778.4 28V28.8H779.2V28H778.4ZM750.4 28H749.6V28.8H750.4V28ZM750.4 0.8H778.4V-0.8H750.4V0.8ZM777.6 0V28H779.2V0H777.6ZM778.4 27.2H750.4V28.8H778.4V27.2ZM751.2 28V0H749.6V28H751.2Z" fill="black"/>
<path d="M788.627 13.5864C788.627 11.8091 788.808 10.3804 789.17 9.30029C789.539 8.21338 790.083 7.37598 790.801 6.78809C791.525 6.2002 792.434 5.90625 793.528 5.90625C794.335 5.90625 795.042 6.07031 795.651 6.39844C796.259 6.71973 796.762 7.18799 797.158 7.80322C797.555 8.41162 797.866 9.15674 798.091 10.0386C798.317 10.9136 798.43 12.0962 798.43 13.5864C798.43 15.3501 798.248 16.7754 797.886 17.8623C797.524 18.9424 796.98 19.7798 796.256 20.3745C795.538 20.9624 794.629 21.2563 793.528 21.2563C792.079 21.2563 790.941 20.7368 790.114 19.6978C789.122 18.4468 788.627 16.4097 788.627 13.5864ZM790.524 13.5864C790.524 16.0542 790.811 17.6982 791.385 18.5186C791.966 19.332 792.681 19.7388 793.528 19.7388C794.376 19.7388 795.087 19.3286 795.661 18.5083C796.242 17.688 796.533 16.0474 796.533 13.5864C796.533 11.1118 796.242 9.46777 795.661 8.6543C795.087 7.84082 794.369 7.43408 793.508 7.43408C792.66 7.43408 791.983 7.79297 791.477 8.51074C790.842 9.42676 790.524 11.1187 790.524 13.5864Z" fill="#FF8C22"/>
<path d="M779.6 0V-0.8H778.8V0H779.6ZM807.6 0H808.4V-0.8H807.6V0ZM807.6 28V28.8H808.4V28H807.6ZM779.6 28H778.8V28.8H779.6V28ZM779.6 0.8H807.6V-0.8H779.6V0.8ZM806.8 0V28H808.4V0H806.8ZM807.6 27.2H779.6V28.8H807.6V27.2ZM780.4 28V0H778.8V28H780.4Z" fill="black"/>
<path d="M817.827 13.5864C817.827 11.8091 818.008 10.3804 818.37 9.30029C818.739 8.21338 819.283 7.37598 820.001 6.78809C820.725 6.2002 821.634 5.90625 822.728 5.90625C823.535 5.90625 824.242 6.07031 824.851 6.39844C825.459 6.71973 825.962 7.18799 826.358 7.80322C826.755 8.41162 827.066 9.15674 827.291 10.0386C827.517 10.9136 827.63 12.0962 827.63 13.5864C827.63 15.3501 827.448 16.7754 827.086 17.8623C826.724 18.9424 826.18 19.7798 825.456 20.3745C824.738 20.9624 823.829 21.2563 822.728 21.2563C821.279 21.2563 820.141 20.7368 819.314 19.6978C818.322 18.4468 817.827 16.4097 817.827 13.5864ZM819.724 13.5864C819.724 16.0542 820.011 17.6982 820.585 18.5186C821.166 19.332 821.88 19.7388 822.728 19.7388C823.576 19.7388 824.287 19.3286 824.861 18.5083C825.442 17.688 825.733 16.0474 825.733 13.5864C825.733 11.1118 825.442 9.46777 824.861 8.6543C824.287 7.84082 823.569 7.43408 822.708 7.43408C821.86 7.43408 821.183 7.79297 820.677 8.51074C820.042 9.42676 819.724 11.1187 819.724 13.5864Z" fill="#FF8C22"/>
<path d="M808.8 0V-0.8H808V0H808.8ZM836.8 0H837.6V-0.8H836.8V0ZM836.8 28V28.8H837.6V28H836.8ZM808.8 28H808V28.8H808.8V28ZM808.8 0.8H836.8V-0.8H808.8V0.8ZM836 0V28H837.6V0H836ZM836.8 27.2H808.8V28.8H836.8V27.2ZM809.6 28V0H808V28H809.6Z" fill="black"/>
<path d="M853.979 21H852.133V9.23877C851.689 9.6626 851.104 10.0864 850.38 10.5103C849.662 10.9341 849.016 11.252 848.442 11.4639V9.67969C849.474 9.19434 850.376 8.60645 851.149 7.91602C851.921 7.22559 852.468 6.55566 852.79 5.90625H853.979V21Z" fill="#FF8C22"/>
<path d="M838 0V-0.8H837.2V0H838ZM866 0H866.8V-0.8H866V0ZM866 28V28.8H866.8V28H866ZM838 28H837.2V28.8H838V28ZM838 0.8H866V-0.8H838V0.8ZM865.2 0V28H866.8V0H865.2ZM866 27.2H838V28.8H866V27.2ZM838.8 28V0H837.2V28H838.8Z" fill="black"/>
<path d="M883.179 21H881.333V9.23877C880.889 9.6626 880.304 10.0864 879.58 10.5103C878.862 10.9341 878.216 11.252 877.642 11.4639V9.67969C878.674 9.19434 879.576 8.60645 880.349 7.91602C881.121 7.22559 881.668 6.55566 881.99 5.90625H883.179V21Z" fill="#FF8C22"/>
<path d="M867.2 0V-0.8H866.4V0H867.2ZM895.2 0H896V-0.8H895.2V0ZM895.2 28V28.8H896V28H895.2ZM867.2 28H866.4V28.8H867.2V28ZM867.2 0.8H895.2V-0.8H867.2V0.8ZM894.4 0V28H896V0H894.4ZM895.2 27.2H867.2V28.8H895.2V27.2ZM868 28V0H866.4V28H868Z" fill="black"/>
<path d="M905.427 13.5864C905.427 11.8091 905.608 10.3804 905.97 9.30029C906.339 8.21338 906.883 7.37598 907.601 6.78809C908.325 6.2002 909.234 5.90625 910.328 5.90625C911.135 5.90625 911.842 6.07031 912.451 6.39844C913.059 6.71973 913.562 7.18799 913.958 7.80322C914.354 8.41162 914.666 9.15674 914.891 10.0386C915.117 10.9136 915.229 12.0962 915.229 13.5864C915.229 15.3501 915.048 16.7754 914.686 17.8623C914.324 18.9424 913.78 19.7798 913.056 20.3745C912.338 20.9624 911.429 21.2563 910.328 21.2563C908.879 21.2563 907.741 20.7368 906.914 19.6978C905.922 18.4468 905.427 16.4097 905.427 13.5864ZM907.324 13.5864C907.324 16.0542 907.611 17.6982 908.185 18.5186C908.766 19.332 909.48 19.7388 910.328 19.7388C911.176 19.7388 911.887 19.3286 912.461 18.5083C913.042 17.688 913.333 16.0474 913.333 13.5864C913.333 11.1118 913.042 9.46777 912.461 8.6543C911.887 7.84082 911.169 7.43408 910.308 7.43408C909.46 7.43408 908.783 7.79297 908.277 8.51074C907.642 9.42676 907.324 11.1187 907.324 13.5864Z" fill="#FF8C22"/>
<path d="M896.4 0V-0.8H895.6V0H896.4ZM924.4 0H925.2V-0.8H924.4V0ZM924.4 28V28.8H925.2V28H924.4ZM896.4 28H895.6V28.8H896.4V28ZM896.4 0.8H924.4V-0.8H896.4V0.8ZM923.6 0V28H925.2V0H923.6ZM924.4 27.2H896.4V28.8H924.4V27.2ZM897.2 28V0H895.6V28H897.2Z" fill="black"/>
<path d="M941.579 21H939.733V9.23877C939.289 9.6626 938.704 10.0864 937.98 10.5103C937.262 10.9341 936.616 11.252 936.042 11.4639V9.67969C937.074 9.19434 937.976 8.60645 938.749 7.91602C939.521 7.22559 940.068 6.55566 940.39 5.90625H941.579V21Z" fill="#FF8C22"/>
<path d="M925.6 0V-0.8H924.8V0H925.6ZM953.6 0H954.4V-0.8H953.6V0ZM953.6 28V28.8H954.4V28H953.6ZM925.6 28H924.8V28.8H925.6V28ZM925.6 0.8H953.6V-0.8H925.6V0.8ZM952.8 0V28H954.4V0H952.8ZM953.6 27.2H925.6V28.8H953.6V27.2ZM926.4 28V0H924.8V28H926.4Z" fill="black"/>
</g>
<path d="M282.455 40.8174V42H275.831C275.822 41.7038 275.87 41.4189 275.975 41.1455C276.143 40.6943 276.412 40.25 276.781 39.8125C277.155 39.375 277.693 38.8691 278.395 38.2949C279.484 37.4017 280.22 36.6953 280.603 36.1758C280.985 35.6517 281.177 35.1572 281.177 34.6924C281.177 34.2048 281.001 33.7946 280.65 33.4619C280.304 33.1247 279.851 32.9561 279.29 32.9561C278.698 32.9561 278.224 33.1338 277.868 33.4893C277.513 33.8447 277.333 34.3369 277.328 34.9658L276.063 34.8359C276.15 33.8926 276.476 33.1748 277.041 32.6826C277.606 32.1859 278.365 31.9375 279.317 31.9375C280.279 31.9375 281.04 32.2041 281.601 32.7373C282.161 33.2705 282.441 33.9313 282.441 34.7197C282.441 35.1208 282.359 35.515 282.195 35.9023C282.031 36.2897 281.758 36.6976 281.375 37.126C280.997 37.5544 280.366 38.1423 279.481 38.8896C278.743 39.5094 278.269 39.931 278.06 40.1543C277.85 40.373 277.677 40.5941 277.54 40.8174H282.455ZM283.69 35.994V35.266H287.442V35.994H283.69ZM290.193 36.9893V33.2021C289.729 33.5713 289.218 33.8288 288.662 33.9746V33.1338C288.945 33.0426 289.259 32.8763 289.605 32.6348C289.952 32.3932 290.232 32.1335 290.446 31.8555H291.185V36.9893H290.193Z" fill="black"/>
<path d="M369.455 40.8174V42H362.831C362.822 41.7038 362.87 41.4189 362.975 41.1455C363.143 40.6943 363.412 40.25 363.781 39.8125C364.155 39.375 364.693 38.8691 365.395 38.2949C366.484 37.4017 367.22 36.6953 367.603 36.1758C367.985 35.6517 368.177 35.1572 368.177 34.6924C368.177 34.2048 368.001 33.7946 367.65 33.4619C367.304 33.1247 366.851 32.9561 366.29 32.9561C365.698 32.9561 365.224 33.1338 364.868 33.4893C364.513 33.8447 364.333 34.3369 364.328 34.9658L363.063 34.8359C363.15 33.8926 363.476 33.1748 364.041 32.6826C364.606 32.1859 365.365 31.9375 366.317 31.9375C367.279 31.9375 368.04 32.2041 368.601 32.7373C369.161 33.2705 369.441 33.9313 369.441 34.7197C369.441 35.1208 369.359 35.515 369.195 35.9023C369.031 36.2897 368.758 36.6976 368.375 37.126C367.997 37.5544 367.366 38.1423 366.481 38.8896C365.743 39.5094 365.269 39.931 365.06 40.1543C364.85 40.373 364.677 40.5941 364.54 40.8174H369.455ZM370.69 35.994V35.266H374.442V35.994H370.69ZM377.706 37.1055V36.0527H375.088V35.2119L377.856 31.9717H378.69V35.3145H379.401V36.0527H378.69V37.1055H377.706ZM377.706 35.3145V33.5166L376.134 35.3145H377.706Z" fill="black"/>
<path d="M398.455 40.8174V42H391.831C391.822 41.7038 391.87 41.4189 391.975 41.1455C392.143 40.6943 392.412 40.25 392.781 39.8125C393.155 39.375 393.693 38.8691 394.395 38.2949C395.484 37.4017 396.22 36.6953 396.603 36.1758C396.985 35.6517 397.177 35.1572 397.177 34.6924C397.177 34.2048 397.001 33.7946 396.65 33.4619C396.304 33.1247 395.851 32.9561 395.29 32.9561C394.698 32.9561 394.224 33.1338 393.868 33.4893C393.513 33.8447 393.333 34.3369 393.328 34.9658L392.063 34.8359C392.15 33.8926 392.476 33.1748 393.041 32.6826C393.606 32.1859 394.365 31.9375 395.317 31.9375C396.279 31.9375 397.04 32.2041 397.601 32.7373C398.161 33.2705 398.441 33.9313 398.441 34.7197C398.441 35.1208 398.359 35.515 398.195 35.9023C398.031 36.2897 397.758 36.6976 397.375 37.126C396.997 37.5544 396.366 38.1423 395.481 38.8896C394.743 39.5094 394.269 39.931 394.06 40.1543C393.85 40.373 393.677 40.5941 393.54 40.8174H398.455ZM399.69 35.994V35.266H403.442V35.994H399.69ZM404.163 35.6631L405.147 35.54C405.266 36.0186 405.601 36.2578 406.152 36.2578C406.471 36.2578 406.738 36.1735 406.952 36.0049C407.185 35.818 407.301 35.5697 407.301 35.2598C407.301 34.9772 407.201 34.7448 407 34.5625C406.804 34.3757 406.565 34.2822 406.282 34.2822C405.963 34.2822 405.644 34.4281 405.325 34.7197L404.361 34.5488L404.901 31.9717H408.114V32.7988H405.558L405.325 33.8789C405.685 33.6374 406.068 33.5166 406.474 33.5166C406.984 33.5166 407.419 33.6807 407.779 34.0088C408.144 34.3369 408.326 34.7539 408.326 35.2598C408.326 35.8249 408.103 36.2806 407.656 36.627C407.246 36.946 406.752 37.1055 406.173 37.1055C405.667 37.1055 405.239 36.9893 404.888 36.7568C404.505 36.5016 404.263 36.137 404.163 35.6631Z" fill="black"/>
<path d="M493.455 40.8174V42H486.831C486.822 41.7038 486.87 41.4189 486.975 41.1455C487.143 40.6943 487.412 40.25 487.781 39.8125C488.155 39.375 488.693 38.8691 489.395 38.2949C490.484 37.4017 491.22 36.6953 491.603 36.1758C491.985 35.6517 492.177 35.1572 492.177 34.6924C492.177 34.2048 492.001 33.7946 491.65 33.4619C491.304 33.1247 490.851 32.9561 490.29 32.9561C489.698 32.9561 489.224 33.1338 488.868 33.4893C488.513 33.8447 488.333 34.3369 488.328 34.9658L487.063 34.8359C487.15 33.8926 487.476 33.1748 488.041 32.6826C488.606 32.1859 489.365 31.9375 490.317 31.9375C491.279 31.9375 492.04 32.2041 492.601 32.7373C493.161 33.2705 493.441 33.9313 493.441 34.7197C493.441 35.1208 493.359 35.515 493.195 35.9023C493.031 36.2897 492.758 36.6976 492.375 37.126C491.997 37.5544 491.366 38.1423 490.481 38.8896C489.743 39.5094 489.269 39.931 489.06 40.1543C488.85 40.373 488.677 40.5941 488.54 40.8174H493.455ZM494.69 35.994V35.266H498.442V35.994H494.69ZM500.298 34.2617C499.705 34.0475 499.409 33.6784 499.409 33.1543C499.409 32.2839 500.011 31.8486 501.214 31.8486C501.729 31.8486 502.153 31.9375 502.485 32.1152C502.905 32.3431 503.114 32.694 503.114 33.168C503.114 33.6921 502.795 34.0566 502.157 34.2617C502.918 34.4486 503.299 34.8678 503.299 35.5195C503.299 36.0436 503.082 36.4492 502.649 36.7363C502.28 36.9824 501.818 37.1055 501.262 37.1055C500.71 37.1055 500.248 36.987 499.874 36.75C499.437 36.472 499.218 36.0732 499.218 35.5537C499.218 34.8792 499.578 34.4486 500.298 34.2617ZM500.428 33.2227C500.428 33.6875 500.703 33.9199 501.255 33.9199C501.478 33.9199 501.67 33.8675 501.829 33.7627C502.011 33.6396 502.103 33.471 502.103 33.2568C502.103 33.0335 502.011 32.8581 501.829 32.7305C501.67 32.6211 501.474 32.5664 501.241 32.5664C501.027 32.5664 500.842 32.6211 500.688 32.7305C500.514 32.8535 500.428 33.0176 500.428 33.2227ZM500.236 35.4717C500.236 36.0505 500.576 36.3398 501.255 36.3398C501.542 36.3398 501.779 36.2738 501.966 36.1416C502.18 35.9912 502.287 35.7793 502.287 35.5059C502.287 35.2233 502.178 35.0046 501.959 34.8496C501.768 34.7129 501.526 34.6445 501.234 34.6445C500.569 34.6445 500.236 34.9202 500.236 35.4717Z" fill="black"/>
<path d="M522.455 40.8174V42H515.831C515.822 41.7038 515.87 41.4189 515.975 41.1455C516.143 40.6943 516.412 40.25 516.781 39.8125C517.155 39.375 517.693 38.8691 518.395 38.2949C519.484 37.4017 520.22 36.6953 520.603 36.1758C520.985 35.6517 521.177 35.1572 521.177 34.6924C521.177 34.2048 521.001 33.7946 520.65 33.4619C520.304 33.1247 519.851 32.9561 519.29 32.9561C518.698 32.9561 518.224 33.1338 517.868 33.4893C517.513 33.8447 517.333 34.3369 517.328 34.9658L516.063 34.8359C516.15 33.8926 516.476 33.1748 517.041 32.6826C517.606 32.1859 518.365 31.9375 519.317 31.9375C520.279 31.9375 521.04 32.2041 521.601 32.7373C522.161 33.2705 522.441 33.9313 522.441 34.7197C522.441 35.1208 522.359 35.515 522.195 35.9023C522.031 36.2897 521.758 36.6976 521.375 37.126C520.997 37.5544 520.366 38.1423 519.481 38.8896C518.743 39.5094 518.269 39.931 518.06 40.1543C517.85 40.373 517.677 40.5941 517.54 40.8174H522.455ZM523.69 35.994V35.266H527.442V35.994H523.69ZM528.279 35.8203L529.366 35.7725C529.394 35.891 529.473 36.0003 529.605 36.1006C529.77 36.2327 529.968 36.2988 530.2 36.2988C530.888 36.2988 531.232 35.8112 531.232 34.8359C531.023 35.1549 530.642 35.3145 530.091 35.3145C529.553 35.3145 529.125 35.1732 528.806 34.8906C528.464 34.5853 528.293 34.1569 528.293 33.6055C528.293 33.0677 528.478 32.637 528.847 32.3135C529.202 32.0036 529.667 31.8486 530.241 31.8486C531.613 31.8486 532.299 32.6803 532.299 34.3438C532.299 36.1849 531.586 37.1055 530.159 37.1055C529.653 37.1055 529.223 36.9642 528.867 36.6816C528.576 36.4447 528.38 36.1576 528.279 35.8203ZM531.13 33.5781C531.13 32.9629 530.838 32.6553 530.255 32.6553C529.658 32.6553 529.359 32.9629 529.359 33.5781C529.359 34.1751 529.653 34.4736 530.241 34.4736C530.834 34.4736 531.13 34.1751 531.13 33.5781Z" fill="black"/>
<path d="M608.124 40.8174V42H601.5C601.491 41.7038 601.539 41.4189 601.644 41.1455C601.812 40.6943 602.081 40.25 602.45 39.8125C602.824 39.375 603.362 38.8691 604.063 38.2949C605.153 37.4017 605.889 36.6953 606.271 36.1758C606.654 35.6517 606.846 35.1572 606.846 34.6924C606.846 34.2048 606.67 33.7946 606.319 33.4619C605.973 33.1247 605.52 32.9561 604.959 32.9561C604.367 32.9561 603.893 33.1338 603.537 33.4893C603.182 33.8447 603.002 34.3369 602.997 34.9658L601.732 34.8359C601.819 33.8926 602.145 33.1748 602.71 32.6826C603.275 32.1859 604.034 31.9375 604.986 31.9375C605.948 31.9375 606.709 32.2041 607.27 32.7373C607.83 33.2705 608.11 33.9313 608.11 34.7197C608.11 35.1208 608.028 35.515 607.864 35.9023C607.7 36.2897 607.427 36.6976 607.044 37.126C606.666 37.5544 606.035 38.1423 605.15 38.8896C604.412 39.5094 603.938 39.931 603.729 40.1543C603.519 40.373 603.346 40.5941 603.209 40.8174H608.124ZM609.359 35.994V35.266H613.111V35.994H609.359ZM615.862 36.9893V33.2021C615.397 33.5713 614.887 33.8288 614.331 33.9746V33.1338C614.614 33.0426 614.928 32.8763 615.274 32.6348C615.621 32.3932 615.901 32.1335 616.115 31.8555H616.854V36.9893H615.862ZM618.433 36.9893C618.46 36.7295 618.567 36.4697 618.754 36.21C619.041 35.818 619.513 35.3851 620.169 34.9111C620.825 34.4326 621.215 34.125 621.338 33.9883C621.507 33.8014 621.591 33.61 621.591 33.4141C621.591 33.1953 621.511 33.0153 621.352 32.874C621.192 32.7327 620.957 32.6621 620.647 32.6621C620.347 32.6621 620.121 32.7168 619.971 32.8262C619.825 32.931 619.704 33.1361 619.608 33.4414L618.576 33.332C618.708 32.8262 618.936 32.4548 619.26 32.2178C619.588 31.9762 620.057 31.8555 620.668 31.8555C621.356 31.8555 621.86 31.9899 622.179 32.2588C622.502 32.5277 622.664 32.8558 622.664 33.2432C622.664 33.626 622.53 33.9883 622.261 34.3301C622.056 34.5853 621.589 34.9749 620.859 35.499C620.481 35.777 620.212 35.998 620.053 36.1621H622.691V36.9893H618.433Z" fill="black"/>
<path d="M637.124 40.8174V42H630.5C630.491 41.7038 630.539 41.4189 630.644 41.1455C630.812 40.6943 631.081 40.25 631.45 39.8125C631.824 39.375 632.362 38.8691 633.063 38.2949C634.153 37.4017 634.889 36.6953 635.271 36.1758C635.654 35.6517 635.846 35.1572 635.846 34.6924C635.846 34.2048 635.67 33.7946 635.319 33.4619C634.973 33.1247 634.52 32.9561 633.959 32.9561C633.367 32.9561 632.893 33.1338 632.537 33.4893C632.182 33.8447 632.002 34.3369 631.997 34.9658L630.732 34.8359C630.819 33.8926 631.145 33.1748 631.71 32.6826C632.275 32.1859 633.034 31.9375 633.986 31.9375C634.948 31.9375 635.709 32.2041 636.27 32.7373C636.83 33.2705 637.11 33.9313 637.11 34.7197C637.11 35.1208 637.028 35.515 636.864 35.9023C636.7 36.2897 636.427 36.6976 636.044 37.126C635.666 37.5544 635.035 38.1423 634.15 38.8896C633.412 39.5094 632.938 39.931 632.729 40.1543C632.519 40.373 632.346 40.5941 632.209 40.8174H637.124ZM638.359 35.994V35.266H642.111V35.994H638.359ZM644.862 36.9893V33.2021C644.397 33.5713 643.887 33.8288 643.331 33.9746V33.1338C643.614 33.0426 643.928 32.8763 644.274 32.6348C644.621 32.3932 644.901 32.1335 645.115 31.8555H645.854V36.9893H644.862ZM647.487 35.6494L648.485 35.5469C648.576 35.8203 648.695 36.0072 648.841 36.1074C649.037 36.2441 649.269 36.3125 649.538 36.3125C649.862 36.3125 650.121 36.2236 650.317 36.0459C650.513 35.8682 650.611 35.654 650.611 35.4033C650.611 35.1755 650.529 34.9932 650.365 34.8564C650.201 34.7197 649.921 34.6514 649.524 34.6514C649.47 34.6514 649.395 34.6559 649.299 34.665C649.235 34.6696 649.185 34.6719 649.148 34.6719L649.299 33.9199C649.668 33.9245 649.937 33.8584 650.105 33.7217C650.279 33.585 650.365 33.4186 650.365 33.2227C650.365 33.054 650.297 32.9105 650.16 32.792C650.023 32.6735 649.821 32.6143 649.552 32.6143C649.297 32.6143 649.096 32.6644 648.95 32.7646C648.809 32.8649 648.686 33.0472 648.581 33.3115L647.604 33.1543C647.79 32.6712 648.025 32.334 648.308 32.1426C648.595 31.9512 649.012 31.8555 649.559 31.8555C650.215 31.8555 650.691 31.9785 650.987 32.2246C651.288 32.4661 651.438 32.7692 651.438 33.1338C651.438 33.3844 651.356 33.6077 651.192 33.8037C651.033 33.9997 650.8 34.141 650.495 34.2275C650.901 34.3278 651.199 34.4941 651.391 34.7266C651.582 34.9544 651.678 35.2233 651.678 35.5332C651.678 35.957 651.498 36.3262 651.138 36.6406C650.778 36.9551 650.265 37.1123 649.6 37.1123C648.962 37.1123 648.474 36.987 648.137 36.7363C647.799 36.4811 647.583 36.1188 647.487 35.6494Z" fill="black"/>
<path d="M731.124 40.8174V42H724.5C724.491 41.7038 724.539 41.4189 724.644 41.1455C724.812 40.6943 725.081 40.25 725.45 39.8125C725.824 39.375 726.362 38.8691 727.063 38.2949C728.153 37.4017 728.889 36.6953 729.271 36.1758C729.654 35.6517 729.846 35.1572 729.846 34.6924C729.846 34.2048 729.67 33.7946 729.319 33.4619C728.973 33.1247 728.52 32.9561 727.959 32.9561C727.367 32.9561 726.893 33.1338 726.537 33.4893C726.182 33.8447 726.002 34.3369 725.997 34.9658L724.732 34.8359C724.819 33.8926 725.145 33.1748 725.71 32.6826C726.275 32.1859 727.034 31.9375 727.986 31.9375C728.948 31.9375 729.709 32.2041 730.27 32.7373C730.83 33.2705 731.11 33.9313 731.11 34.7197C731.11 35.1208 731.028 35.515 730.864 35.9023C730.7 36.2897 730.427 36.6976 730.044 37.126C729.666 37.5544 729.035 38.1423 728.15 38.8896C727.412 39.5094 726.938 39.931 726.729 40.1543C726.519 40.373 726.346 40.5941 726.209 40.8174H731.124ZM732.359 35.994V35.266H736.111V35.994H732.359ZM738.862 36.9893V33.2021C738.397 33.5713 737.887 33.8288 737.331 33.9746V33.1338C737.614 33.0426 737.928 32.8763 738.274 32.6348C738.621 32.3932 738.901 32.1335 739.115 31.8555H739.854V36.9893H738.862ZM745.596 33.1338L744.509 33.1816C744.427 32.8307 744.16 32.6553 743.709 32.6553C742.998 32.6553 742.643 33.1429 742.643 34.1182C742.852 33.7992 743.246 33.6396 743.825 33.6396C744.372 33.6396 744.816 33.7809 745.158 34.0635C745.532 34.3734 745.719 34.8018 745.719 35.3486C745.719 35.8818 745.521 36.3125 745.124 36.6406C744.746 36.9505 744.267 37.1055 743.688 37.1055C742.28 37.1055 741.576 36.2738 741.576 34.6104C741.576 32.7692 742.301 31.8486 743.75 31.8486C744.256 31.8486 744.68 31.9899 745.021 32.2725C745.304 32.5049 745.495 32.792 745.596 33.1338ZM742.745 35.376C742.745 35.9912 743.055 36.2988 743.675 36.2988C743.957 36.2988 744.19 36.2191 744.372 36.0596C744.559 35.9001 744.652 35.6722 744.652 35.376C744.652 34.779 744.326 34.4805 743.675 34.4805C743.055 34.4805 742.745 34.779 742.745 35.376Z" fill="black"/>
<path d="M760.124 40.8174V42H753.5C753.491 41.7038 753.539 41.4189 753.644 41.1455C753.812 40.6943 754.081 40.25 754.45 39.8125C754.824 39.375 755.362 38.8691 756.063 38.2949C757.153 37.4017 757.889 36.6953 758.271 36.1758C758.654 35.6517 758.846 35.1572 758.846 34.6924C758.846 34.2048 758.67 33.7946 758.319 33.4619C757.973 33.1247 757.52 32.9561 756.959 32.9561C756.367 32.9561 755.893 33.1338 755.537 33.4893C755.182 33.8447 755.002 34.3369 754.997 34.9658L753.732 34.8359C753.819 33.8926 754.145 33.1748 754.71 32.6826C755.275 32.1859 756.034 31.9375 756.986 31.9375C757.948 31.9375 758.709 32.2041 759.27 32.7373C759.83 33.2705 760.11 33.9313 760.11 34.7197C760.11 35.1208 760.028 35.515 759.864 35.9023C759.7 36.2897 759.427 36.6976 759.044 37.126C758.666 37.5544 758.035 38.1423 757.15 38.8896C756.412 39.5094 755.938 39.931 755.729 40.1543C755.519 40.373 755.346 40.5941 755.209 40.8174H760.124ZM761.359 35.994V35.266H765.111V35.994H761.359ZM767.862 36.9893V33.2021C767.397 33.5713 766.887 33.8288 766.331 33.9746V33.1338C766.614 33.0426 766.928 32.8763 767.274 32.6348C767.621 32.3932 767.901 32.1335 768.115 31.8555H768.854V36.9893H767.862ZM771.602 36.9824C771.711 35.5195 772.306 34.125 773.386 32.7988H770.761V31.9717H774.514V32.5186C773.402 33.8128 772.768 35.3008 772.613 36.9824H771.602Z" fill="black"/>
<path d="M848.124 40.8174V42H841.5C841.491 41.7038 841.539 41.4189 841.644 41.1455C841.812 40.6943 842.081 40.25 842.45 39.8125C842.824 39.375 843.362 38.8691 844.063 38.2949C845.153 37.4017 845.889 36.6953 846.271 36.1758C846.654 35.6517 846.846 35.1572 846.846 34.6924C846.846 34.2048 846.67 33.7946 846.319 33.4619C845.973 33.1247 845.52 32.9561 844.959 32.9561C844.367 32.9561 843.893 33.1338 843.537 33.4893C843.182 33.8447 843.002 34.3369 842.997 34.9658L841.732 34.8359C841.819 33.8926 842.145 33.1748 842.71 32.6826C843.275 32.1859 844.034 31.9375 844.986 31.9375C845.948 31.9375 846.709 32.2041 847.27 32.7373C847.83 33.2705 848.11 33.9313 848.11 34.7197C848.11 35.1208 848.028 35.515 847.864 35.9023C847.7 36.2897 847.427 36.6976 847.044 37.126C846.666 37.5544 846.035 38.1423 845.15 38.8896C844.412 39.5094 843.938 39.931 843.729 40.1543C843.519 40.373 843.346 40.5941 843.209 40.8174H848.124ZM849.359 35.994V35.266H853.111V35.994H849.359ZM853.771 36.9893C853.798 36.7295 853.905 36.4697 854.092 36.21C854.379 35.818 854.851 35.3851 855.507 34.9111C856.163 34.4326 856.553 34.125 856.676 33.9883C856.844 33.8014 856.929 33.61 856.929 33.4141C856.929 33.1953 856.849 33.0153 856.689 32.874C856.53 32.7327 856.295 32.6621 855.985 32.6621C855.685 32.6621 855.459 32.7168 855.309 32.8262C855.163 32.931 855.042 33.1361 854.946 33.4414L853.914 33.332C854.046 32.8262 854.274 32.4548 854.598 32.2178C854.926 31.9762 855.395 31.8555 856.006 31.8555C856.694 31.8555 857.198 31.9899 857.517 32.2588C857.84 32.5277 858.002 32.8558 858.002 33.2432C858.002 33.626 857.868 33.9883 857.599 34.3301C857.394 34.5853 856.926 34.9749 856.197 35.499C855.819 35.777 855.55 35.998 855.391 36.1621H858.029V36.9893H853.771ZM862.691 34.4736C862.691 35.2803 862.525 35.9115 862.192 36.3672C861.832 36.8594 861.299 37.1055 860.593 37.1055C859.194 37.1055 858.494 36.2305 858.494 34.4805C858.494 33.6738 858.66 33.0426 858.993 32.5869C859.353 32.0947 859.886 31.8486 860.593 31.8486C861.992 31.8486 862.691 32.7236 862.691 34.4736ZM861.625 34.4736C861.625 33.945 861.579 33.5553 861.488 33.3047C861.333 32.8717 861.035 32.6553 860.593 32.6553C860.151 32.6553 859.852 32.8717 859.697 33.3047C859.606 33.5599 859.561 33.9518 859.561 34.4805C859.561 35.0091 859.606 35.3988 859.697 35.6494C859.852 36.0824 860.151 36.2988 860.593 36.2988C861.035 36.2988 861.333 36.0824 861.488 35.6494C861.579 35.3942 861.625 35.0023 861.625 34.4736Z" fill="black"/>
<path d="M877.124 40.8174V42H870.5C870.491 41.7038 870.539 41.4189 870.644 41.1455C870.812 40.6943 871.081 40.25 871.45 39.8125C871.824 39.375 872.362 38.8691 873.063 38.2949C874.153 37.4017 874.889 36.6953 875.271 36.1758C875.654 35.6517 875.846 35.1572 875.846 34.6924C875.846 34.2048 875.67 33.7946 875.319 33.4619C874.973 33.1247 874.52 32.9561 873.959 32.9561C873.367 32.9561 872.893 33.1338 872.537 33.4893C872.182 33.8447 872.002 34.3369 871.997 34.9658L870.732 34.8359C870.819 33.8926 871.145 33.1748 871.71 32.6826C872.275 32.1859 873.034 31.9375 873.986 31.9375C874.948 31.9375 875.709 32.2041 876.27 32.7373C876.83 33.2705 877.11 33.9313 877.11 34.7197C877.11 35.1208 877.028 35.515 876.864 35.9023C876.7 36.2897 876.427 36.6976 876.044 37.126C875.666 37.5544 875.035 38.1423 874.15 38.8896C873.412 39.5094 872.938 39.931 872.729 40.1543C872.519 40.373 872.346 40.5941 872.209 40.8174H877.124ZM878.359 35.994V35.266H882.111V35.994H878.359ZM882.771 36.9893C882.798 36.7295 882.905 36.4697 883.092 36.21C883.379 35.818 883.851 35.3851 884.507 34.9111C885.163 34.4326 885.553 34.125 885.676 33.9883C885.844 33.8014 885.929 33.61 885.929 33.4141C885.929 33.1953 885.849 33.0153 885.689 32.874C885.53 32.7327 885.295 32.6621 884.985 32.6621C884.685 32.6621 884.459 32.7168 884.309 32.8262C884.163 32.931 884.042 33.1361 883.946 33.4414L882.914 33.332C883.046 32.8262 883.274 32.4548 883.598 32.2178C883.926 31.9762 884.395 31.8555 885.006 31.8555C885.694 31.8555 886.198 31.9899 886.517 32.2588C886.84 32.5277 887.002 32.8558 887.002 33.2432C887.002 33.626 886.868 33.9883 886.599 34.3301C886.394 34.5853 885.926 34.9749 885.197 35.499C884.819 35.777 884.55 35.998 884.391 36.1621H887.029V36.9893H882.771ZM889.524 36.9893V33.2021C889.06 33.5713 888.549 33.8288 887.993 33.9746V33.1338C888.276 33.0426 888.59 32.8763 888.937 32.6348C889.283 32.3932 889.563 32.1335 889.777 31.8555H890.516V36.9893H889.524Z" fill="black"/>
<path d="M936.124 40.8174V42H929.5C929.491 41.7038 929.539 41.4189 929.644 41.1455C929.812 40.6943 930.081 40.25 930.45 39.8125C930.824 39.375 931.362 38.8691 932.063 38.2949C933.153 37.4017 933.889 36.6953 934.271 36.1758C934.654 35.6517 934.846 35.1572 934.846 34.6924C934.846 34.2048 934.67 33.7946 934.319 33.4619C933.973 33.1247 933.52 32.9561 932.959 32.9561C932.367 32.9561 931.893 33.1338 931.537 33.4893C931.182 33.8447 931.002 34.3369 930.997 34.9658L929.732 34.8359C929.819 33.8926 930.145 33.1748 930.71 32.6826C931.275 32.1859 932.034 31.9375 932.986 31.9375C933.948 31.9375 934.709 32.2041 935.27 32.7373C935.83 33.2705 936.11 33.9313 936.11 34.7197C936.11 35.1208 936.028 35.515 935.864 35.9023C935.7 36.2897 935.427 36.6976 935.044 37.126C934.666 37.5544 934.035 38.1423 933.15 38.8896C932.412 39.5094 931.938 39.931 931.729 40.1543C931.519 40.373 931.346 40.5941 931.209 40.8174H936.124ZM937.359 35.994V35.266H941.111V35.994H937.359ZM941.771 36.9893C941.798 36.7295 941.905 36.4697 942.092 36.21C942.379 35.818 942.851 35.3851 943.507 34.9111C944.163 34.4326 944.553 34.125 944.676 33.9883C944.844 33.8014 944.929 33.61 944.929 33.4141C944.929 33.1953 944.849 33.0153 944.689 32.874C944.53 32.7327 944.295 32.6621 943.985 32.6621C943.685 32.6621 943.459 32.7168 943.309 32.8262C943.163 32.931 943.042 33.1361 942.946 33.4414L941.914 33.332C942.046 32.8262 942.274 32.4548 942.598 32.2178C942.926 31.9762 943.395 31.8555 944.006 31.8555C944.694 31.8555 945.198 31.9899 945.517 32.2588C945.84 32.5277 946.002 32.8558 946.002 33.2432C946.002 33.626 945.868 33.9883 945.599 34.3301C945.394 34.5853 944.926 34.9749 944.197 35.499C943.819 35.777 943.55 35.998 943.391 36.1621H946.029V36.9893H941.771ZM946.487 35.6494L947.485 35.5469C947.576 35.8203 947.695 36.0072 947.841 36.1074C948.037 36.2441 948.269 36.3125 948.538 36.3125C948.862 36.3125 949.121 36.2236 949.317 36.0459C949.513 35.8682 949.611 35.654 949.611 35.4033C949.611 35.1755 949.529 34.9932 949.365 34.8564C949.201 34.7197 948.921 34.6514 948.524 34.6514C948.47 34.6514 948.395 34.6559 948.299 34.665C948.235 34.6696 948.185 34.6719 948.148 34.6719L948.299 33.9199C948.668 33.9245 948.937 33.8584 949.105 33.7217C949.279 33.585 949.365 33.4186 949.365 33.2227C949.365 33.054 949.297 32.9105 949.16 32.792C949.023 32.6735 948.821 32.6143 948.552 32.6143C948.297 32.6143 948.096 32.6644 947.95 32.7646C947.809 32.8649 947.686 33.0472 947.581 33.3115L946.604 33.1543C946.79 32.6712 947.025 32.334 947.308 32.1426C947.595 31.9512 948.012 31.8555 948.559 31.8555C949.215 31.8555 949.691 31.9785 949.987 32.2246C950.288 32.4661 950.438 32.7692 950.438 33.1338C950.438 33.3844 950.356 33.6077 950.192 33.8037C950.033 33.9997 949.8 34.141 949.495 34.2275C949.901 34.3278 950.199 34.4941 950.391 34.7266C950.582 34.9544 950.678 35.2233 950.678 35.5332C950.678 35.957 950.498 36.3262 950.138 36.6406C949.778 36.9551 949.265 37.1123 948.6 37.1123C947.962 37.1123 947.474 36.987 947.137 36.7363C946.799 36.4811 946.583 36.1188 946.487 35.6494Z" fill="black"/>
<path d="M284 45V58.5H940V45" stroke="black"/>
<path d="M485.527 74.833L486.744 74.6416C486.812 75.1292 487.002 75.5029 487.312 75.7627C487.626 76.0225 488.063 76.1523 488.624 76.1523C489.189 76.1523 489.608 76.0384 489.882 75.8105C490.155 75.5781 490.292 75.307 490.292 74.9971C490.292 74.7191 490.171 74.5003 489.93 74.3408C489.761 74.2314 489.342 74.0924 488.672 73.9238C487.77 73.696 487.143 73.5 486.792 73.3359C486.446 73.1673 486.181 72.9372 485.999 72.6455C485.821 72.3493 485.732 72.0234 485.732 71.668C485.732 71.3444 485.805 71.0459 485.951 70.7725C486.102 70.4945 486.304 70.2643 486.56 70.082C486.751 69.9408 487.011 69.8223 487.339 69.7266C487.672 69.6263 488.027 69.5762 488.405 69.5762C488.975 69.5762 489.474 69.6582 489.902 69.8223C490.335 69.9863 490.654 70.2096 490.859 70.4922C491.064 70.7702 491.206 71.1439 491.283 71.6133L490.08 71.7773C490.025 71.4036 489.866 71.112 489.602 70.9023C489.342 70.6927 488.973 70.5879 488.494 70.5879C487.929 70.5879 487.526 70.6813 487.284 70.8682C487.043 71.055 486.922 71.2738 486.922 71.5244C486.922 71.6839 486.972 71.8275 487.072 71.9551C487.173 72.0872 487.33 72.1966 487.544 72.2832C487.667 72.3288 488.029 72.4336 488.631 72.5977C489.501 72.8301 490.107 73.0215 490.449 73.1719C490.796 73.3177 491.067 73.5319 491.263 73.8145C491.459 74.097 491.557 74.4479 491.557 74.8672C491.557 75.2773 491.436 75.6647 491.194 76.0293C490.957 76.3893 490.613 76.6696 490.162 76.8701C489.711 77.0661 489.201 77.1641 488.631 77.1641C487.688 77.1641 486.967 76.9681 486.471 76.5762C485.979 76.1842 485.664 75.6032 485.527 74.833ZM492.562 73.3701C492.562 72.0257 492.935 71.0299 493.683 70.3828C494.307 69.8451 495.068 69.5762 495.966 69.5762C496.964 69.5762 497.78 69.9043 498.413 70.5605C499.047 71.2122 499.363 72.1146 499.363 73.2676C499.363 74.2018 499.222 74.9378 498.939 75.4756C498.661 76.0088 498.254 76.4235 497.716 76.7197C497.183 77.016 496.599 77.1641 495.966 77.1641C494.95 77.1641 494.127 76.8382 493.498 76.1865C492.874 75.5348 492.562 74.596 492.562 73.3701ZM493.826 73.3701C493.826 74.2998 494.029 74.9971 494.435 75.4619C494.84 75.9222 495.351 76.1523 495.966 76.1523C496.576 76.1523 497.085 75.9199 497.49 75.4551C497.896 74.9902 498.099 74.2816 498.099 73.3291C498.099 72.4313 497.894 71.7523 497.483 71.292C497.078 70.8271 496.572 70.5947 495.966 70.5947C495.351 70.5947 494.84 70.8249 494.435 71.2852C494.029 71.7454 493.826 72.4404 493.826 73.3701ZM500.812 77V69.7402H501.913V70.7588C502.141 70.4033 502.444 70.1185 502.822 69.9043C503.201 69.6855 503.631 69.5762 504.114 69.5762C504.652 69.5762 505.092 69.6878 505.434 69.9111C505.78 70.1344 506.024 70.4466 506.165 70.8477C506.739 70 507.487 69.5762 508.407 69.5762C509.127 69.5762 509.681 69.7767 510.068 70.1777C510.456 70.5742 510.649 71.1872 510.649 72.0166V77H509.426V72.4268C509.426 71.9346 509.385 71.5814 509.303 71.3672C509.225 71.1484 509.082 70.973 508.872 70.8408C508.662 70.7087 508.416 70.6426 508.134 70.6426C507.623 70.6426 507.2 70.8135 506.862 71.1553C506.525 71.4925 506.356 72.0348 506.356 72.7822V77H505.126V72.2832C505.126 71.7363 505.026 71.3262 504.825 71.0527C504.625 70.7793 504.297 70.6426 503.841 70.6426C503.494 70.6426 503.173 70.7337 502.877 70.916C502.585 71.0983 502.373 71.3649 502.241 71.7158C502.109 72.0667 502.043 72.5726 502.043 73.2334V77H500.812ZM512.475 77V69.7402H513.575V70.7588C513.803 70.4033 514.106 70.1185 514.484 69.9043C514.863 69.6855 515.293 69.5762 515.776 69.5762C516.314 69.5762 516.754 69.6878 517.096 69.9111C517.442 70.1344 517.686 70.4466 517.827 70.8477C518.401 70 519.149 69.5762 520.069 69.5762C520.789 69.5762 521.343 69.7767 521.73 70.1777C522.118 70.5742 522.312 71.1872 522.312 72.0166V77H521.088V72.4268C521.088 71.9346 521.047 71.5814 520.965 71.3672C520.887 71.1484 520.744 70.973 520.534 70.8408C520.325 70.7087 520.078 70.6426 519.796 70.6426C519.285 70.6426 518.862 70.8135 518.524 71.1553C518.187 71.4925 518.019 72.0348 518.019 72.7822V77H516.788V72.2832C516.788 71.7363 516.688 71.3262 516.487 71.0527C516.287 70.7793 515.959 70.6426 515.503 70.6426C515.157 70.6426 514.835 70.7337 514.539 70.916C514.247 71.0983 514.035 71.3649 513.903 71.7158C513.771 72.0667 513.705 72.5726 513.705 73.2334V77H512.475ZM529.106 74.6621L530.378 74.8193C530.177 75.5622 529.806 76.1387 529.264 76.5488C528.721 76.959 528.029 77.1641 527.186 77.1641C526.124 77.1641 525.281 76.8382 524.656 76.1865C524.036 75.5303 523.727 74.612 523.727 73.4316C523.727 72.2103 524.041 71.2624 524.67 70.5879C525.299 69.9134 526.115 69.5762 527.117 69.5762C528.088 69.5762 528.881 69.9066 529.496 70.5674C530.111 71.2282 530.419 72.1579 530.419 73.3564C530.419 73.4294 530.417 73.5387 530.412 73.6846H524.998C525.044 74.4821 525.269 75.0928 525.675 75.5166C526.08 75.9404 526.586 76.1523 527.192 76.1523C527.644 76.1523 528.029 76.0339 528.348 75.7969C528.667 75.5599 528.92 75.1816 529.106 74.6621ZM525.066 72.6729H529.12C529.065 72.0622 528.91 71.6042 528.655 71.2988C528.263 70.8249 527.755 70.5879 527.131 70.5879C526.566 70.5879 526.09 70.777 525.702 71.1553C525.319 71.5335 525.107 72.0394 525.066 72.6729ZM542.3 71.1074H535.683V69.959H542.3V71.1074ZM542.3 74.1494H535.683V73.001H542.3V74.1494ZM547.557 72.0576C547.557 70.8727 547.677 69.9202 547.919 69.2002C548.165 68.4756 548.527 67.9173 549.006 67.5254C549.489 67.1335 550.095 66.9375 550.824 66.9375C551.362 66.9375 551.834 67.0469 552.239 67.2656C552.645 67.4798 552.98 67.792 553.244 68.2021C553.508 68.6077 553.716 69.1045 553.866 69.6924C554.017 70.2757 554.092 71.0641 554.092 72.0576C554.092 73.2334 553.971 74.1836 553.729 74.9082C553.488 75.6283 553.126 76.1865 552.643 76.583C552.164 76.9749 551.558 77.1709 550.824 77.1709C549.858 77.1709 549.099 76.8245 548.548 76.1318C547.887 75.2979 547.557 73.9398 547.557 72.0576ZM548.821 72.0576C548.821 73.7028 549.013 74.7988 549.396 75.3457C549.783 75.888 550.259 76.1592 550.824 76.1592C551.389 76.1592 551.863 75.8857 552.246 75.3389C552.633 74.792 552.827 73.6982 552.827 72.0576C552.827 70.4079 552.633 69.3118 552.246 68.7695C551.863 68.2272 551.385 67.9561 550.811 67.9561C550.245 67.9561 549.794 68.1953 549.457 68.6738C549.033 69.2845 548.821 70.4124 548.821 72.0576ZM556.013 77V75.5986H557.414V77C557.414 77.515 557.323 77.9297 557.141 78.2441C556.958 78.5632 556.669 78.8092 556.272 78.9824L555.931 78.4561C556.19 78.3421 556.382 78.1735 556.505 77.9502C556.628 77.7314 556.696 77.4147 556.71 77H556.013ZM565.631 69.4326L564.407 69.5283C564.298 69.0452 564.143 68.6943 563.942 68.4756C563.61 68.1247 563.2 67.9492 562.712 67.9492C562.32 67.9492 561.976 68.0586 561.68 68.2773C561.292 68.5599 560.987 68.9723 560.764 69.5146C560.54 70.057 560.424 70.8294 560.415 71.832C560.711 71.3809 561.074 71.0459 561.502 70.8271C561.93 70.6084 562.379 70.499 562.849 70.499C563.669 70.499 564.366 70.8021 564.94 71.4082C565.519 72.0098 565.809 72.7891 565.809 73.7461C565.809 74.375 565.672 74.9606 565.398 75.5029C565.13 76.0407 564.758 76.4531 564.284 76.7402C563.81 77.0273 563.272 77.1709 562.671 77.1709C561.646 77.1709 560.809 76.7949 560.162 76.043C559.515 75.2865 559.191 74.0423 559.191 72.3105C559.191 70.3737 559.549 68.9655 560.265 68.0859C560.889 67.3203 561.73 66.9375 562.787 66.9375C563.576 66.9375 564.22 67.1585 564.722 67.6006C565.228 68.0426 565.531 68.6533 565.631 69.4326ZM560.606 73.7529C560.606 74.1768 560.695 74.5824 560.873 74.9697C561.055 75.3571 561.308 75.6533 561.632 75.8584C561.955 76.0589 562.295 76.1592 562.65 76.1592C563.17 76.1592 563.617 75.9495 563.99 75.5303C564.364 75.111 564.551 74.5413 564.551 73.8213C564.551 73.1286 564.366 72.584 563.997 72.1875C563.628 71.7865 563.163 71.5859 562.603 71.5859C562.047 71.5859 561.575 71.7865 561.188 72.1875C560.8 72.584 560.606 73.1058 560.606 73.7529ZM567.039 72.0576C567.039 70.8727 567.16 69.9202 567.401 69.2002C567.647 68.4756 568.01 67.9173 568.488 67.5254C568.971 67.1335 569.577 66.9375 570.307 66.9375C570.844 66.9375 571.316 67.0469 571.722 67.2656C572.127 67.4798 572.462 67.792 572.727 68.2021C572.991 68.6077 573.198 69.1045 573.349 69.6924C573.499 70.2757 573.574 71.0641 573.574 72.0576C573.574 73.2334 573.453 74.1836 573.212 74.9082C572.97 75.6283 572.608 76.1865 572.125 76.583C571.646 76.9749 571.04 77.1709 570.307 77.1709C569.34 77.1709 568.582 76.8245 568.03 76.1318C567.369 75.2979 567.039 73.9398 567.039 72.0576ZM568.304 72.0576C568.304 73.7028 568.495 74.7988 568.878 75.3457C569.265 75.888 569.742 76.1592 570.307 76.1592C570.872 76.1592 571.346 75.8857 571.729 75.3389C572.116 74.792 572.31 73.6982 572.31 72.0576C572.31 70.4079 572.116 69.3118 571.729 68.7695C571.346 68.2272 570.867 67.9561 570.293 67.9561C569.728 67.9561 569.277 68.1953 568.939 68.6738C568.516 69.2845 568.304 70.4124 568.304 72.0576ZM574.832 72.0576C574.832 70.8727 574.953 69.9202 575.194 69.2002C575.44 68.4756 575.803 67.9173 576.281 67.5254C576.764 67.1335 577.37 66.9375 578.1 66.9375C578.637 66.9375 579.109 67.0469 579.515 67.2656C579.92 67.4798 580.255 67.792 580.52 68.2021C580.784 68.6077 580.991 69.1045 581.142 69.6924C581.292 70.2757 581.367 71.0641 581.367 72.0576C581.367 73.2334 581.246 74.1836 581.005 74.9082C580.763 75.6283 580.401 76.1865 579.918 76.583C579.439 76.9749 578.833 77.1709 578.1 77.1709C577.133 77.1709 576.375 76.8245 575.823 76.1318C575.162 75.2979 574.832 73.9398 574.832 72.0576ZM576.097 72.0576C576.097 73.7028 576.288 74.7988 576.671 75.3457C577.058 75.888 577.535 76.1592 578.1 76.1592C578.665 76.1592 579.139 75.8857 579.521 75.3389C579.909 74.792 580.103 73.6982 580.103 72.0576C580.103 70.4079 579.909 69.3118 579.521 68.7695C579.139 68.2272 578.66 67.9561 578.086 67.9561C577.521 67.9561 577.07 68.1953 576.732 68.6738C576.309 69.2845 576.097 70.4124 576.097 72.0576ZM582.625 72.0576C582.625 70.8727 582.746 69.9202 582.987 69.2002C583.233 68.4756 583.596 67.9173 584.074 67.5254C584.557 67.1335 585.163 66.9375 585.893 66.9375C586.43 66.9375 586.902 67.0469 587.308 67.2656C587.713 67.4798 588.048 67.792 588.312 68.2021C588.577 68.6077 588.784 69.1045 588.935 69.6924C589.085 70.2757 589.16 71.0641 589.16 72.0576C589.16 73.2334 589.039 74.1836 588.798 74.9082C588.556 75.6283 588.194 76.1865 587.711 76.583C587.232 76.9749 586.626 77.1709 585.893 77.1709C584.926 77.1709 584.168 76.8245 583.616 76.1318C582.955 75.2979 582.625 73.9398 582.625 72.0576ZM583.89 72.0576C583.89 73.7028 584.081 74.7988 584.464 75.3457C584.851 75.888 585.327 76.1592 585.893 76.1592C586.458 76.1592 586.932 75.8857 587.314 75.3389C587.702 74.792 587.896 73.6982 587.896 72.0576C587.896 70.4079 587.702 69.3118 587.314 68.7695C586.932 68.2272 586.453 67.9561 585.879 67.9561C585.314 67.9561 584.863 68.1953 584.525 68.6738C584.102 69.2845 583.89 70.4124 583.89 72.0576ZM590.418 72.0576C590.418 70.8727 590.539 69.9202 590.78 69.2002C591.026 68.4756 591.389 67.9173 591.867 67.5254C592.35 67.1335 592.956 66.9375 593.686 66.9375C594.223 66.9375 594.695 67.0469 595.101 67.2656C595.506 67.4798 595.841 67.792 596.105 68.2021C596.37 68.6077 596.577 69.1045 596.728 69.6924C596.878 70.2757 596.953 71.0641 596.953 72.0576C596.953 73.2334 596.832 74.1836 596.591 74.9082C596.349 75.6283 595.987 76.1865 595.504 76.583C595.025 76.9749 594.419 77.1709 593.686 77.1709C592.719 77.1709 591.961 76.8245 591.409 76.1318C590.748 75.2979 590.418 73.9398 590.418 72.0576ZM591.683 72.0576C591.683 73.7028 591.874 74.7988 592.257 75.3457C592.644 75.888 593.12 76.1592 593.686 76.1592C594.251 76.1592 594.725 75.8857 595.107 75.3389C595.495 74.792 595.688 73.6982 595.688 72.0576C595.688 70.4079 595.495 69.3118 595.107 68.7695C594.725 68.2272 594.246 67.9561 593.672 67.9561C593.107 67.9561 592.656 68.1953 592.318 68.6738C591.895 69.2845 591.683 70.4124 591.683 72.0576ZM598.211 72.0576C598.211 70.8727 598.332 69.9202 598.573 69.2002C598.819 68.4756 599.182 67.9173 599.66 67.5254C600.143 67.1335 600.749 66.9375 601.479 66.9375C602.016 66.9375 602.488 67.0469 602.894 67.2656C603.299 67.4798 603.634 67.792 603.898 68.2021C604.163 68.6077 604.37 69.1045 604.521 69.6924C604.671 70.2757 604.746 71.0641 604.746 72.0576C604.746 73.2334 604.625 74.1836 604.384 74.9082C604.142 75.6283 603.78 76.1865 603.297 76.583C602.818 76.9749 602.212 77.1709 601.479 77.1709C600.512 77.1709 599.754 76.8245 599.202 76.1318C598.541 75.2979 598.211 73.9398 598.211 72.0576ZM599.476 72.0576C599.476 73.7028 599.667 74.7988 600.05 75.3457C600.437 75.888 600.913 76.1592 601.479 76.1592C602.044 76.1592 602.518 75.8857 602.9 75.3389C603.288 74.792 603.481 73.6982 603.481 72.0576C603.481 70.4079 603.288 69.3118 602.9 68.7695C602.518 68.2272 602.039 67.9561 601.465 67.9561C600.9 67.9561 600.449 68.1953 600.111 68.6738C599.688 69.2845 599.476 70.4124 599.476 72.0576ZM606.004 72.0576C606.004 70.8727 606.125 69.9202 606.366 69.2002C606.612 68.4756 606.975 67.9173 607.453 67.5254C607.936 67.1335 608.542 66.9375 609.271 66.9375C609.809 66.9375 610.281 67.0469 610.687 67.2656C611.092 67.4798 611.427 67.792 611.691 68.2021C611.956 68.6077 612.163 69.1045 612.313 69.6924C612.464 70.2757 612.539 71.0641 612.539 72.0576C612.539 73.2334 612.418 74.1836 612.177 74.9082C611.935 75.6283 611.573 76.1865 611.09 76.583C610.611 76.9749 610.005 77.1709 609.271 77.1709C608.305 77.1709 607.547 76.8245 606.995 76.1318C606.334 75.2979 606.004 73.9398 606.004 72.0576ZM607.269 72.0576C607.269 73.7028 607.46 74.7988 607.843 75.3457C608.23 75.888 608.706 76.1592 609.271 76.1592C609.837 76.1592 610.311 75.8857 610.693 75.3389C611.081 74.792 611.274 73.6982 611.274 72.0576C611.274 70.4079 611.081 69.3118 610.693 68.7695C610.311 68.2272 609.832 67.9561 609.258 67.9561C608.693 67.9561 608.242 68.1953 607.904 68.6738C607.48 69.2845 607.269 70.4124 607.269 72.0576ZM620.264 75.8174V77H613.64C613.631 76.7038 613.678 76.4189 613.783 76.1455C613.952 75.6943 614.221 75.25 614.59 74.8125C614.964 74.375 615.501 73.8691 616.203 73.2949C617.292 72.4017 618.028 71.6953 618.411 71.1758C618.794 70.6517 618.985 70.1572 618.985 69.6924C618.985 69.2048 618.81 68.7946 618.459 68.4619C618.113 68.1247 617.659 67.9561 617.099 67.9561C616.506 67.9561 616.032 68.1338 615.677 68.4893C615.321 68.8447 615.141 69.3369 615.137 69.9658L613.872 69.8359C613.959 68.8926 614.285 68.1748 614.85 67.6826C615.415 67.1859 616.174 66.9375 617.126 66.9375C618.088 66.9375 618.849 67.2041 619.409 67.7373C619.97 68.2705 620.25 68.9313 620.25 69.7197C620.25 70.1208 620.168 70.515 620.004 70.9023C619.84 71.2897 619.566 71.6976 619.184 72.126C618.805 72.5544 618.174 73.1423 617.29 73.8896C616.552 74.5094 616.078 74.931 615.868 75.1543C615.659 75.373 615.485 75.5941 615.349 75.8174H620.264ZM621.597 74.3545L622.827 74.1904C622.968 74.8877 623.208 75.3913 623.545 75.7012C623.887 76.0065 624.301 76.1592 624.789 76.1592C625.368 76.1592 625.855 75.9587 626.252 75.5576C626.653 75.1566 626.854 74.6598 626.854 74.0674C626.854 73.5023 626.669 73.0374 626.3 72.6729C625.931 72.3037 625.461 72.1191 624.892 72.1191C624.659 72.1191 624.37 72.1647 624.023 72.2559L624.16 71.1758C624.242 71.1849 624.308 71.1895 624.358 71.1895C624.882 71.1895 625.354 71.0527 625.773 70.7793C626.193 70.5059 626.402 70.0843 626.402 69.5146C626.402 69.0635 626.25 68.6898 625.944 68.3936C625.639 68.0973 625.245 67.9492 624.762 67.9492C624.283 67.9492 623.884 68.0996 623.565 68.4004C623.246 68.7012 623.041 69.1523 622.95 69.7539L621.72 69.5352C621.87 68.7103 622.212 68.0723 622.745 67.6211C623.278 67.1654 623.941 66.9375 624.734 66.9375C625.281 66.9375 625.785 67.056 626.245 67.293C626.705 67.5254 627.056 67.8444 627.298 68.25C627.544 68.6556 627.667 69.0863 627.667 69.542C627.667 69.9749 627.551 70.3691 627.318 70.7246C627.086 71.0801 626.742 71.3626 626.286 71.5723C626.879 71.709 627.339 71.9938 627.667 72.4268C627.995 72.8551 628.159 73.3929 628.159 74.04C628.159 74.915 627.84 75.6579 627.202 76.2686C626.564 76.8747 625.757 77.1777 624.782 77.1777C623.903 77.1777 623.171 76.9157 622.588 76.3916C622.009 75.8675 621.679 75.1885 621.597 74.3545ZM631.276 71.5654C630.766 71.3786 630.388 71.112 630.142 70.7656C629.896 70.4193 629.772 70.0046 629.772 69.5215C629.772 68.7923 630.035 68.1794 630.559 67.6826C631.083 67.1859 631.78 66.9375 632.65 66.9375C633.525 66.9375 634.229 67.1927 634.763 67.7031C635.296 68.209 635.562 68.8265 635.562 69.5557C635.562 70.0205 635.439 70.4261 635.193 70.7725C634.952 71.1143 634.583 71.3786 634.086 71.5654C634.701 71.766 635.168 72.0895 635.487 72.5361C635.811 72.9827 635.973 73.516 635.973 74.1357C635.973 74.9925 635.67 75.7126 635.063 76.2959C634.457 76.8792 633.66 77.1709 632.671 77.1709C631.682 77.1709 630.884 76.8792 630.278 76.2959C629.672 75.708 629.369 74.9766 629.369 74.1016C629.369 73.4499 629.533 72.9053 629.861 72.4678C630.194 72.0257 630.666 71.7249 631.276 71.5654ZM631.03 69.4805C631.03 69.9544 631.183 70.3418 631.488 70.6426C631.794 70.9434 632.19 71.0938 632.678 71.0938C633.152 71.0938 633.539 70.9456 633.84 70.6494C634.145 70.3486 634.298 69.9818 634.298 69.5488C634.298 69.0977 634.141 68.7194 633.826 68.4141C633.516 68.1042 633.129 67.9492 632.664 67.9492C632.195 67.9492 631.805 68.0996 631.495 68.4004C631.185 68.7012 631.03 69.0612 631.03 69.4805ZM630.634 74.1084C630.634 74.4593 630.716 74.7988 630.88 75.127C631.049 75.4551 631.297 75.7103 631.625 75.8926C631.953 76.0703 632.306 76.1592 632.685 76.1592C633.272 76.1592 633.758 75.9701 634.141 75.5918C634.523 75.2135 634.715 74.7327 634.715 74.1494C634.715 73.557 634.517 73.0671 634.12 72.6797C633.728 72.2923 633.236 72.0986 632.644 72.0986C632.065 72.0986 631.584 72.29 631.201 72.6729C630.823 73.0557 630.634 73.5342 630.634 74.1084ZM641.12 77V74.6006H636.772V73.4727L641.346 66.9785H642.351V73.4727H643.704V74.6006H642.351V77H641.12ZM641.12 73.4727V68.9541L637.982 73.4727H641.12ZM649.604 77H648.373V69.1592C648.077 69.4417 647.687 69.7243 647.204 70.0068C646.726 70.2894 646.295 70.5013 645.912 70.6426V69.4531C646.6 69.1296 647.202 68.7376 647.717 68.2773C648.232 67.8171 648.596 67.3704 648.811 66.9375H649.604V77ZM654.655 71.5654C654.145 71.3786 653.767 71.112 653.521 70.7656C653.274 70.4193 653.151 70.0046 653.151 69.5215C653.151 68.7923 653.413 68.1794 653.938 67.6826C654.462 67.1859 655.159 66.9375 656.029 66.9375C656.904 66.9375 657.608 67.1927 658.142 67.7031C658.675 68.209 658.941 68.8265 658.941 69.5557C658.941 70.0205 658.818 70.4261 658.572 70.7725C658.331 71.1143 657.962 71.3786 657.465 71.5654C658.08 71.766 658.547 72.0895 658.866 72.5361C659.19 72.9827 659.352 73.516 659.352 74.1357C659.352 74.9925 659.049 75.7126 658.442 76.2959C657.836 76.8792 657.039 77.1709 656.05 77.1709C655.061 77.1709 654.263 76.8792 653.657 76.2959C653.051 75.708 652.748 74.9766 652.748 74.1016C652.748 73.4499 652.912 72.9053 653.24 72.4678C653.573 72.0257 654.045 71.7249 654.655 71.5654ZM654.409 69.4805C654.409 69.9544 654.562 70.3418 654.867 70.6426C655.173 70.9434 655.569 71.0938 656.057 71.0938C656.531 71.0938 656.918 70.9456 657.219 70.6494C657.524 70.3486 657.677 69.9818 657.677 69.5488C657.677 69.0977 657.52 68.7194 657.205 68.4141C656.895 68.1042 656.508 67.9492 656.043 67.9492C655.574 67.9492 655.184 68.0996 654.874 68.4004C654.564 68.7012 654.409 69.0612 654.409 69.4805ZM654.013 74.1084C654.013 74.4593 654.095 74.7988 654.259 75.127C654.427 75.4551 654.676 75.7103 655.004 75.8926C655.332 76.0703 655.685 76.1592 656.063 76.1592C656.651 76.1592 657.137 75.9701 657.52 75.5918C657.902 75.2135 658.094 74.7327 658.094 74.1494C658.094 73.557 657.896 73.0671 657.499 72.6797C657.107 72.2923 656.615 72.0986 656.022 72.0986C655.444 72.0986 654.963 72.29 654.58 72.6729C654.202 73.0557 654.013 73.5342 654.013 74.1084ZM660.555 74.375L661.847 74.2656C661.942 74.8945 662.163 75.3685 662.51 75.6875C662.861 76.002 663.282 76.1592 663.774 76.1592C664.367 76.1592 664.868 75.9359 665.278 75.4893C665.688 75.0426 665.894 74.4502 665.894 73.7119C665.894 73.0101 665.695 72.4564 665.299 72.0508C664.907 71.6452 664.392 71.4424 663.754 71.4424C663.357 71.4424 663 71.5335 662.681 71.7158C662.362 71.8936 662.111 72.126 661.929 72.4131L660.773 72.2627L661.744 67.1152H666.728V68.291H662.729L662.188 70.9844C662.79 70.5651 663.421 70.3555 664.082 70.3555C664.957 70.3555 665.695 70.6585 666.297 71.2646C666.898 71.8708 667.199 72.6501 667.199 73.6025C667.199 74.5094 666.935 75.2933 666.406 75.9541C665.764 76.7653 664.886 77.1709 663.774 77.1709C662.863 77.1709 662.118 76.9157 661.539 76.4053C660.965 75.8949 660.637 75.2181 660.555 74.375ZM668.43 68.291V67.1084H674.917V68.0654C674.279 68.7445 673.646 69.6468 673.017 70.7725C672.392 71.8981 671.909 73.0557 671.567 74.2451C671.321 75.0837 671.164 76.002 671.096 77H669.831C669.845 76.2116 670 75.2591 670.296 74.1426C670.592 73.026 671.016 71.9505 671.567 70.916C672.123 69.877 672.714 69.002 673.338 68.291H668.43ZM676.325 74.6826L677.508 74.5732C677.608 75.1292 677.799 75.5326 678.082 75.7832C678.365 76.0339 678.727 76.1592 679.169 76.1592C679.547 76.1592 679.878 76.0726 680.16 75.8994C680.447 75.7262 680.682 75.4961 680.864 75.209C681.047 74.9173 681.199 74.5254 681.322 74.0332C681.445 73.541 681.507 73.0397 681.507 72.5293C681.507 72.4746 681.505 72.3926 681.5 72.2832C681.254 72.6751 680.917 72.9941 680.488 73.2402C680.064 73.4818 679.604 73.6025 679.107 73.6025C678.278 73.6025 677.576 73.3018 677.002 72.7002C676.428 72.0986 676.141 71.3057 676.141 70.3213C676.141 69.305 676.439 68.487 677.036 67.8672C677.638 67.2474 678.39 66.9375 679.292 66.9375C679.944 66.9375 680.538 67.113 681.076 67.4639C681.618 67.8148 682.029 68.3161 682.307 68.9678C682.589 69.6149 682.73 70.5537 682.73 71.7842C682.73 73.0648 682.591 74.0856 682.313 74.8467C682.035 75.6032 681.621 76.1797 681.069 76.5762C680.522 76.9727 679.88 77.1709 679.142 77.1709C678.358 77.1709 677.717 76.9544 677.221 76.5215C676.724 76.084 676.425 75.471 676.325 74.6826ZM681.363 70.2598C681.363 69.5534 681.174 68.9928 680.796 68.5781C680.422 68.1634 679.971 67.9561 679.442 67.9561C678.896 67.9561 678.419 68.1794 678.014 68.626C677.608 69.0726 677.405 69.6514 677.405 70.3623C677.405 71.0003 677.597 71.5199 677.979 71.9209C678.367 72.3174 678.843 72.5156 679.408 72.5156C679.978 72.5156 680.445 72.3174 680.81 71.9209C681.179 71.5199 681.363 70.9661 681.363 70.2598ZM688.568 77H687.338V69.1592C687.042 69.4417 686.652 69.7243 686.169 70.0068C685.69 70.2894 685.26 70.5013 684.877 70.6426V69.4531C685.565 69.1296 686.167 68.7376 686.682 68.2773C687.197 67.8171 687.561 67.3704 687.775 66.9375H688.568V77ZM691.727 72.0576C691.727 70.8727 691.847 69.9202 692.089 69.2002C692.335 68.4756 692.697 67.9173 693.176 67.5254C693.659 67.1335 694.265 66.9375 694.994 66.9375C695.532 66.9375 696.004 67.0469 696.409 67.2656C696.815 67.4798 697.15 67.792 697.414 68.2021C697.678 68.6077 697.886 69.1045 698.036 69.6924C698.187 70.2757 698.262 71.0641 698.262 72.0576C698.262 73.2334 698.141 74.1836 697.899 74.9082C697.658 75.6283 697.296 76.1865 696.812 76.583C696.334 76.9749 695.728 77.1709 694.994 77.1709C694.028 77.1709 693.269 76.8245 692.718 76.1318C692.057 75.2979 691.727 73.9398 691.727 72.0576ZM692.991 72.0576C692.991 73.7028 693.183 74.7988 693.565 75.3457C693.953 75.888 694.429 76.1592 694.994 76.1592C695.559 76.1592 696.033 75.8857 696.416 75.3389C696.803 74.792 696.997 73.6982 696.997 72.0576C696.997 70.4079 696.803 69.3118 696.416 68.7695C696.033 68.2272 695.555 67.9561 694.98 67.9561C694.415 67.9561 693.964 68.1953 693.627 68.6738C693.203 69.2845 692.991 70.4124 692.991 72.0576ZM704.154 77H702.924V69.1592C702.628 69.4417 702.238 69.7243 701.755 70.0068C701.276 70.2894 700.846 70.5013 700.463 70.6426V69.4531C701.151 69.1296 701.753 68.7376 702.268 68.2773C702.783 67.8171 703.147 67.3704 703.361 66.9375H704.154V77ZM707.312 74.375L708.604 74.2656C708.7 74.8945 708.921 75.3685 709.268 75.6875C709.618 76.002 710.04 76.1592 710.532 76.1592C711.125 76.1592 711.626 75.9359 712.036 75.4893C712.446 75.0426 712.651 74.4502 712.651 73.7119C712.651 73.0101 712.453 72.4564 712.057 72.0508C711.665 71.6452 711.15 71.4424 710.512 71.4424C710.115 71.4424 709.757 71.5335 709.438 71.7158C709.119 71.8936 708.869 72.126 708.687 72.4131L707.531 72.2627L708.502 67.1152H713.485V68.291H709.486L708.946 70.9844C709.548 70.5651 710.179 70.3555 710.84 70.3555C711.715 70.3555 712.453 70.6585 713.055 71.2646C713.656 71.8708 713.957 72.6501 713.957 73.6025C713.957 74.5094 713.693 75.2933 713.164 75.9541C712.521 76.7653 711.644 77.1709 710.532 77.1709C709.621 77.1709 708.876 76.9157 708.297 76.4053C707.723 75.8949 707.395 75.2181 707.312 74.375ZM721.49 69.4326L720.267 69.5283C720.157 69.0452 720.002 68.6943 719.802 68.4756C719.469 68.1247 719.059 67.9492 718.571 67.9492C718.179 67.9492 717.835 68.0586 717.539 68.2773C717.152 68.5599 716.846 68.9723 716.623 69.5146C716.4 70.057 716.284 70.8294 716.274 71.832C716.571 71.3809 716.933 71.0459 717.361 70.8271C717.79 70.6084 718.239 70.499 718.708 70.499C719.528 70.499 720.226 70.8021 720.8 71.4082C721.379 72.0098 721.668 72.7891 721.668 73.7461C721.668 74.375 721.531 74.9606 721.258 75.5029C720.989 76.0407 720.618 76.4531 720.144 76.7402C719.67 77.0273 719.132 77.1709 718.53 77.1709C717.505 77.1709 716.669 76.7949 716.021 76.043C715.374 75.2865 715.051 74.0423 715.051 72.3105C715.051 70.3737 715.409 68.9655 716.124 68.0859C716.748 67.3203 717.589 66.9375 718.646 66.9375C719.435 66.9375 720.08 67.1585 720.581 67.6006C721.087 68.0426 721.39 68.6533 721.49 69.4326ZM716.466 73.7529C716.466 74.1768 716.555 74.5824 716.732 74.9697C716.915 75.3571 717.168 75.6533 717.491 75.8584C717.815 76.0589 718.154 76.1592 718.51 76.1592C719.029 76.1592 719.476 75.9495 719.85 75.5303C720.223 75.111 720.41 74.5413 720.41 73.8213C720.41 73.1286 720.226 72.584 719.856 72.1875C719.487 71.7865 719.022 71.5859 718.462 71.5859C717.906 71.5859 717.434 71.7865 717.047 72.1875C716.66 72.584 716.466 73.1058 716.466 73.7529ZM729.365 75.8174V77H722.741C722.732 76.7038 722.78 76.4189 722.885 76.1455C723.053 75.6943 723.322 75.25 723.691 74.8125C724.065 74.375 724.603 73.8691 725.305 73.2949C726.394 72.4017 727.13 71.6953 727.513 71.1758C727.896 70.6517 728.087 70.1572 728.087 69.6924C728.087 69.2048 727.911 68.7946 727.561 68.4619C727.214 68.1247 726.761 67.9561 726.2 67.9561C725.608 67.9561 725.134 68.1338 724.778 68.4893C724.423 68.8447 724.243 69.3369 724.238 69.9658L722.974 69.8359C723.06 68.8926 723.386 68.1748 723.951 67.6826C724.516 67.1859 725.275 66.9375 726.228 66.9375C727.189 66.9375 727.95 67.2041 728.511 67.7373C729.071 68.2705 729.352 68.9313 729.352 69.7197C729.352 70.1208 729.27 70.515 729.105 70.9023C728.941 71.2897 728.668 71.6976 728.285 72.126C727.907 72.5544 727.276 73.1423 726.392 73.8896C725.653 74.5094 725.179 74.931 724.97 75.1543C724.76 75.373 724.587 75.5941 724.45 75.8174H729.365ZM730.691 74.375L731.983 74.2656C732.079 74.8945 732.3 75.3685 732.646 75.6875C732.997 76.002 733.419 76.1592 733.911 76.1592C734.504 76.1592 735.005 75.9359 735.415 75.4893C735.825 75.0426 736.03 74.4502 736.03 73.7119C736.03 73.0101 735.832 72.4564 735.436 72.0508C735.044 71.6452 734.529 71.4424 733.891 71.4424C733.494 71.4424 733.136 71.5335 732.817 71.7158C732.498 71.8936 732.248 72.126 732.065 72.4131L730.91 72.2627L731.881 67.1152H736.864V68.291H732.865L732.325 70.9844C732.927 70.5651 733.558 70.3555 734.219 70.3555C735.094 70.3555 735.832 70.6585 736.434 71.2646C737.035 71.8708 737.336 72.6501 737.336 73.6025C737.336 74.5094 737.072 75.2933 736.543 75.9541C735.9 76.7653 735.023 77.1709 733.911 77.1709C733 77.1709 732.255 76.9157 731.676 76.4053C731.102 75.8949 730.773 75.2181 730.691 74.375Z" fill="black"/>
<path d="M14 35V58" stroke="black"/>
<path d="M12.9189 75.3799V72.6318H10.1914V71.4834H12.9189V68.7559H14.0811V71.4834H16.8086V72.6318H14.0811V75.3799H12.9189Z" fill="black"/>
<path d="M42.5 35.5V58.5H255V35.5" stroke="black"/>
<path d="M76.1074 74.6621L77.3789 74.8193C77.1784 75.5622 76.807 76.1387 76.2646 76.5488C75.7223 76.959 75.0296 77.1641 74.1865 77.1641C73.1247 77.1641 72.2816 76.8382 71.6572 76.1865C71.0374 75.5303 70.7275 74.612 70.7275 73.4316C70.7275 72.2103 71.042 71.2624 71.6709 70.5879C72.2998 69.9134 73.1156 69.5762 74.1182 69.5762C75.0889 69.5762 75.8818 69.9066 76.4971 70.5674C77.1123 71.2282 77.4199 72.1579 77.4199 73.3564C77.4199 73.4294 77.4176 73.5387 77.4131 73.6846H71.999C72.0446 74.4821 72.2702 75.0928 72.6758 75.5166C73.0814 75.9404 73.5872 76.1523 74.1934 76.1523C74.6445 76.1523 75.0296 76.0339 75.3486 75.7969C75.6676 75.5599 75.9206 75.1816 76.1074 74.6621ZM72.0674 72.6729H76.1211C76.0664 72.0622 75.9115 71.6042 75.6562 71.2988C75.2643 70.8249 74.7562 70.5879 74.1318 70.5879C73.5667 70.5879 73.0905 70.777 72.7031 71.1553C72.3203 71.5335 72.1084 72.0394 72.0674 72.6729ZM78.1104 77L80.7627 73.2266L78.3086 69.7402H79.8467L80.9609 71.4424C81.1706 71.766 81.3392 72.0371 81.4668 72.2559C81.6673 71.9551 81.8519 71.6885 82.0205 71.4561L83.2441 69.7402H84.7139L82.2051 73.1582L84.9053 77H83.3945L81.9043 74.7441L81.5078 74.1357L79.6006 77H78.1104ZM85.9307 79.7822V69.7402H87.0518V70.6836C87.3161 70.3145 87.6146 70.0387 87.9473 69.8564C88.2799 69.6696 88.6833 69.5762 89.1572 69.5762C89.777 69.5762 90.3239 69.7357 90.7979 70.0547C91.2718 70.3737 91.6296 70.8249 91.8711 71.4082C92.1126 71.987 92.2334 72.6227 92.2334 73.3154C92.2334 74.0583 92.099 74.7282 91.8301 75.3252C91.5658 75.9176 91.1784 76.3734 90.668 76.6924C90.1621 77.0068 89.6289 77.1641 89.0684 77.1641C88.6582 77.1641 88.2891 77.0775 87.9609 76.9043C87.6374 76.7311 87.3708 76.5124 87.1611 76.248V79.7822H85.9307ZM87.0449 73.4111C87.0449 74.3454 87.234 75.0358 87.6123 75.4824C87.9906 75.929 88.4486 76.1523 88.9863 76.1523C89.5332 76.1523 90.0003 75.9222 90.3877 75.4619C90.7796 74.9971 90.9756 74.2793 90.9756 73.3086C90.9756 72.3835 90.7842 71.6908 90.4014 71.2305C90.0231 70.7702 89.5697 70.54 89.041 70.54C88.5169 70.54 88.0521 70.7861 87.6465 71.2783C87.2454 71.766 87.0449 72.4769 87.0449 73.4111ZM93.2656 73.3701C93.2656 72.0257 93.6393 71.0299 94.3867 70.3828C95.0111 69.8451 95.7721 69.5762 96.6699 69.5762C97.668 69.5762 98.4837 69.9043 99.1172 70.5605C99.7507 71.2122 100.067 72.1146 100.067 73.2676C100.067 74.2018 99.9261 74.9378 99.6436 75.4756C99.3656 76.0088 98.9577 76.4235 98.4199 76.7197C97.8867 77.016 97.3034 77.1641 96.6699 77.1641C95.6536 77.1641 94.8311 76.8382 94.2021 76.1865C93.5778 75.5348 93.2656 74.596 93.2656 73.3701ZM94.5303 73.3701C94.5303 74.2998 94.7331 74.9971 95.1387 75.4619C95.5443 75.9222 96.0547 76.1523 96.6699 76.1523C97.2806 76.1523 97.7887 75.9199 98.1943 75.4551C98.5999 74.9902 98.8027 74.2816 98.8027 73.3291C98.8027 72.4313 98.5977 71.7523 98.1875 71.292C97.7819 70.8271 97.276 70.5947 96.6699 70.5947C96.0547 70.5947 95.5443 70.8249 95.1387 71.2852C94.7331 71.7454 94.5303 72.4404 94.5303 73.3701ZM101.024 74.833L102.241 74.6416C102.31 75.1292 102.499 75.5029 102.809 75.7627C103.123 76.0225 103.561 76.1523 104.121 76.1523C104.686 76.1523 105.105 76.0384 105.379 75.8105C105.652 75.5781 105.789 75.307 105.789 74.9971C105.789 74.7191 105.668 74.5003 105.427 74.3408C105.258 74.2314 104.839 74.0924 104.169 73.9238C103.267 73.696 102.64 73.5 102.289 73.3359C101.943 73.1673 101.678 72.9372 101.496 72.6455C101.318 72.3493 101.229 72.0234 101.229 71.668C101.229 71.3444 101.302 71.0459 101.448 70.7725C101.599 70.4945 101.801 70.2643 102.057 70.082C102.248 69.9408 102.508 69.8223 102.836 69.7266C103.169 69.6263 103.524 69.5762 103.902 69.5762C104.472 69.5762 104.971 69.6582 105.399 69.8223C105.832 69.9863 106.151 70.2096 106.356 70.4922C106.562 70.7702 106.703 71.1439 106.78 71.6133L105.577 71.7773C105.522 71.4036 105.363 71.112 105.099 70.9023C104.839 70.6927 104.47 70.5879 103.991 70.5879C103.426 70.5879 103.023 70.6813 102.781 70.8682C102.54 71.055 102.419 71.2738 102.419 71.5244C102.419 71.6839 102.469 71.8275 102.569 71.9551C102.67 72.0872 102.827 72.1966 103.041 72.2832C103.164 72.3288 103.526 72.4336 104.128 72.5977C104.998 72.8301 105.604 73.0215 105.946 73.1719C106.293 73.3177 106.564 73.5319 106.76 73.8145C106.956 74.097 107.054 74.4479 107.054 74.8672C107.054 75.2773 106.933 75.6647 106.691 76.0293C106.454 76.3893 106.11 76.6696 105.659 76.8701C105.208 77.0661 104.698 77.1641 104.128 77.1641C103.185 77.1641 102.465 76.9681 101.968 76.5762C101.476 76.1842 101.161 75.6032 101.024 74.833ZM113.254 76.1045C112.798 76.4919 112.358 76.7653 111.935 76.9248C111.515 77.0843 111.064 77.1641 110.581 77.1641C109.784 77.1641 109.171 76.9704 108.742 76.583C108.314 76.1911 108.1 75.6921 108.1 75.0859C108.1 74.7305 108.179 74.4069 108.339 74.1152C108.503 73.819 108.715 73.582 108.975 73.4043C109.239 73.2266 109.535 73.0921 109.863 73.001C110.105 72.9372 110.469 72.8757 110.957 72.8164C111.951 72.6979 112.682 72.5566 113.151 72.3926C113.156 72.224 113.158 72.1169 113.158 72.0713C113.158 71.57 113.042 71.2168 112.81 71.0117C112.495 70.7337 112.028 70.5947 111.408 70.5947C110.829 70.5947 110.401 70.6973 110.123 70.9023C109.85 71.1029 109.647 71.4606 109.515 71.9756L108.312 71.8115C108.421 71.2965 108.601 70.8818 108.852 70.5674C109.102 70.2484 109.465 70.0046 109.938 69.8359C110.412 69.6628 110.962 69.5762 111.586 69.5762C112.206 69.5762 112.709 69.6491 113.097 69.7949C113.484 69.9408 113.769 70.1253 113.951 70.3486C114.133 70.5674 114.261 70.8454 114.334 71.1826C114.375 71.3923 114.396 71.7705 114.396 72.3174V73.958C114.396 75.1019 114.421 75.8265 114.471 76.1318C114.525 76.4326 114.63 76.722 114.785 77H113.5C113.372 76.7448 113.29 76.4463 113.254 76.1045ZM113.151 73.3564C112.705 73.5387 112.035 73.6937 111.142 73.8213C110.636 73.8942 110.278 73.9762 110.068 74.0674C109.859 74.1585 109.697 74.293 109.583 74.4707C109.469 74.6439 109.412 74.8376 109.412 75.0518C109.412 75.3799 109.535 75.6533 109.781 75.8721C110.032 76.0908 110.396 76.2002 110.875 76.2002C111.349 76.2002 111.771 76.0977 112.14 75.8926C112.509 75.6829 112.78 75.3981 112.953 75.0381C113.085 74.7601 113.151 74.3499 113.151 73.8076V73.3564ZM116.31 77V69.7402H117.417V70.7725C117.95 69.9749 118.72 69.5762 119.728 69.5762C120.165 69.5762 120.566 69.6559 120.931 69.8154C121.3 69.9704 121.576 70.1755 121.758 70.4307C121.94 70.6859 122.068 70.9889 122.141 71.3398C122.186 71.5677 122.209 71.9665 122.209 72.5361V77H120.979V72.584C120.979 72.0827 120.931 71.709 120.835 71.4629C120.739 71.2122 120.568 71.014 120.322 70.8682C120.081 70.7178 119.796 70.6426 119.468 70.6426C118.944 70.6426 118.49 70.8089 118.107 71.1416C117.729 71.4743 117.54 72.1055 117.54 73.0352V77H116.31ZM126.789 75.8994L126.967 76.9863C126.62 77.0592 126.311 77.0957 126.037 77.0957C125.59 77.0957 125.244 77.0251 124.998 76.8838C124.752 76.7425 124.579 76.5579 124.479 76.3301C124.378 76.0977 124.328 75.6123 124.328 74.874V70.6973H123.426V69.7402H124.328V67.9424L125.552 67.2041V69.7402H126.789V70.6973H125.552V74.9424C125.552 75.2933 125.572 75.5189 125.613 75.6191C125.659 75.7194 125.729 75.7992 125.825 75.8584C125.925 75.9176 126.067 75.9473 126.249 75.9473C126.386 75.9473 126.566 75.9313 126.789 75.8994ZM138.369 71.1074H131.752V69.959H138.369V71.1074ZM138.369 74.1494H131.752V73.001H138.369V74.1494ZM148.261 77H147.03V69.1592C146.734 69.4417 146.344 69.7243 145.861 70.0068C145.383 70.2894 144.952 70.5013 144.569 70.6426V69.4531C145.257 69.1296 145.859 68.7376 146.374 68.2773C146.889 67.8171 147.254 67.3704 147.468 66.9375H148.261V77ZM157.886 75.8174V77H151.262C151.253 76.7038 151.3 76.4189 151.405 76.1455C151.574 75.6943 151.843 75.25 152.212 74.8125C152.586 74.375 153.123 73.8691 153.825 73.2949C154.914 72.4017 155.65 71.6953 156.033 71.1758C156.416 70.6517 156.607 70.1572 156.607 69.6924C156.607 69.2048 156.432 68.7946 156.081 68.4619C155.735 68.1247 155.281 67.9561 154.721 67.9561C154.128 67.9561 153.654 68.1338 153.299 68.4893C152.943 68.8447 152.763 69.3369 152.759 69.9658L151.494 69.8359C151.581 68.8926 151.907 68.1748 152.472 67.6826C153.037 67.1859 153.796 66.9375 154.748 66.9375C155.71 66.9375 156.471 67.2041 157.031 67.7373C157.592 68.2705 157.872 68.9313 157.872 69.7197C157.872 70.1208 157.79 70.515 157.626 70.9023C157.462 71.2897 157.188 71.6976 156.806 72.126C156.427 72.5544 155.796 73.1423 154.912 73.8896C154.174 74.5094 153.7 74.931 153.49 75.1543C153.281 75.373 153.107 75.5941 152.971 75.8174H157.886ZM165.597 69.4326L164.373 69.5283C164.264 69.0452 164.109 68.6943 163.908 68.4756C163.576 68.1247 163.165 67.9492 162.678 67.9492C162.286 67.9492 161.942 68.0586 161.646 68.2773C161.258 68.5599 160.953 68.9723 160.729 69.5146C160.506 70.057 160.39 70.8294 160.381 71.832C160.677 71.3809 161.039 71.0459 161.468 70.8271C161.896 70.6084 162.345 70.499 162.814 70.499C163.635 70.499 164.332 70.8021 164.906 71.4082C165.485 72.0098 165.774 72.7891 165.774 73.7461C165.774 74.375 165.638 74.9606 165.364 75.5029C165.095 76.0407 164.724 76.4531 164.25 76.7402C163.776 77.0273 163.238 77.1709 162.637 77.1709C161.611 77.1709 160.775 76.7949 160.128 76.043C159.481 75.2865 159.157 74.0423 159.157 72.3105C159.157 70.3737 159.515 68.9655 160.23 68.0859C160.855 67.3203 161.696 66.9375 162.753 66.9375C163.541 66.9375 164.186 67.1585 164.688 67.6006C165.193 68.0426 165.496 68.6533 165.597 69.4326ZM160.572 73.7529C160.572 74.1768 160.661 74.5824 160.839 74.9697C161.021 75.3571 161.274 75.6533 161.598 75.8584C161.921 76.0589 162.261 76.1592 162.616 76.1592C163.136 76.1592 163.582 75.9495 163.956 75.5303C164.33 75.111 164.517 74.5413 164.517 73.8213C164.517 73.1286 164.332 72.584 163.963 72.1875C163.594 71.7865 163.129 71.5859 162.568 71.5859C162.012 71.5859 161.541 71.7865 161.153 72.1875C160.766 72.584 160.572 73.1058 160.572 73.7529ZM170.765 73.9922V72.7549H174.545V73.9922H170.765ZM180.198 77H178.968V69.1592C178.672 69.4417 178.282 69.7243 177.799 70.0068C177.32 70.2894 176.89 70.5013 176.507 70.6426V69.4531C177.195 69.1296 177.797 68.7376 178.312 68.2773C178.826 67.8171 179.191 67.3704 179.405 66.9375H180.198V77ZM189.823 75.8174V77H183.199C183.19 76.7038 183.238 76.4189 183.343 76.1455C183.511 75.6943 183.78 75.25 184.149 74.8125C184.523 74.375 185.061 73.8691 185.763 73.2949C186.852 72.4017 187.588 71.6953 187.971 71.1758C188.354 70.6517 188.545 70.1572 188.545 69.6924C188.545 69.2048 188.369 68.7946 188.019 68.4619C187.672 68.1247 187.219 67.9561 186.658 67.9561C186.066 67.9561 185.592 68.1338 185.236 68.4893C184.881 68.8447 184.701 69.3369 184.696 69.9658L183.432 69.8359C183.518 68.8926 183.844 68.1748 184.409 67.6826C184.974 67.1859 185.733 66.9375 186.686 66.9375C187.647 66.9375 188.408 67.2041 188.969 67.7373C189.529 68.2705 189.81 68.9313 189.81 69.7197C189.81 70.1208 189.728 70.515 189.563 70.9023C189.399 71.2897 189.126 71.6976 188.743 72.126C188.365 72.5544 187.734 73.1423 186.85 73.8896C186.111 74.5094 185.637 74.931 185.428 75.1543C185.218 75.373 185.045 75.5941 184.908 75.8174H189.823ZM191.231 68.291V67.1084H197.719V68.0654C197.081 68.7445 196.447 69.6468 195.818 70.7725C195.194 71.8981 194.711 73.0557 194.369 74.2451C194.123 75.0837 193.966 76.002 193.897 77H192.633C192.646 76.2116 192.801 75.2591 193.098 74.1426C193.394 73.026 193.818 71.9505 194.369 70.916C194.925 69.877 195.515 69.002 196.14 68.291H191.231ZM209.654 71.1074H203.037V69.959H209.654V71.1074ZM209.654 74.1494H203.037V73.001H209.654V74.1494ZM214.774 73.9922V72.7549H218.555V73.9922H214.774ZM224.208 77H222.978V69.1592C222.681 69.4417 222.292 69.7243 221.809 70.0068C221.33 70.2894 220.899 70.5013 220.517 70.6426V69.4531C221.205 69.1296 221.806 68.7376 222.321 68.2773C222.836 67.8171 223.201 67.3704 223.415 66.9375H224.208V77Z" fill="black"/>
<path d="M142.526 52H141.296V44.1592C141 44.4417 140.61 44.7243 140.127 45.0068C139.648 45.2894 139.218 45.5013 138.835 45.6426V44.4531C139.523 44.1296 140.125 43.7376 140.64 43.2773C141.155 42.8171 141.519 42.3704 141.733 41.9375H142.526V52ZM152.151 50.8174V52H145.527C145.518 51.7038 145.566 51.4189 145.671 51.1455C145.84 50.6943 146.108 50.25 146.478 49.8125C146.851 49.375 147.389 48.8691 148.091 48.2949C149.18 47.4017 149.916 46.6953 150.299 46.1758C150.682 45.6517 150.873 45.1572 150.873 44.6924C150.873 44.2048 150.698 43.7946 150.347 43.4619C150 43.1247 149.547 42.9561 148.986 42.9561C148.394 42.9561 147.92 43.1338 147.564 43.4893C147.209 43.8447 147.029 44.3369 147.024 44.9658L145.76 44.8359C145.846 43.8926 146.172 43.1748 146.737 42.6826C147.302 42.1859 148.061 41.9375 149.014 41.9375C149.975 41.9375 150.736 42.2041 151.297 42.7373C151.857 43.2705 152.138 43.9313 152.138 44.7197C152.138 45.1208 152.056 45.515 151.892 45.9023C151.728 46.2897 151.454 46.6976 151.071 47.126C150.693 47.5544 150.062 48.1423 149.178 48.8896C148.439 49.5094 147.965 49.931 147.756 50.1543C147.546 50.373 147.373 50.5941 147.236 50.8174H152.151ZM159.862 44.4326L158.639 44.5283C158.529 44.0452 158.374 43.6943 158.174 43.4756C157.841 43.1247 157.431 42.9492 156.943 42.9492C156.551 42.9492 156.207 43.0586 155.911 43.2773C155.524 43.5599 155.218 43.9723 154.995 44.5146C154.772 45.057 154.656 45.8294 154.646 46.832C154.943 46.3809 155.305 46.0459 155.733 45.8271C156.162 45.6084 156.611 45.499 157.08 45.499C157.9 45.499 158.598 45.8021 159.172 46.4082C159.751 47.0098 160.04 47.7891 160.04 48.7461C160.04 49.375 159.903 49.9606 159.63 50.5029C159.361 51.0407 158.99 51.4531 158.516 51.7402C158.042 52.0273 157.504 52.1709 156.902 52.1709C155.877 52.1709 155.041 51.7949 154.394 51.043C153.746 50.2865 153.423 49.0423 153.423 47.3105C153.423 45.3737 153.781 43.9655 154.496 43.0859C155.12 42.3203 155.961 41.9375 157.019 41.9375C157.807 41.9375 158.452 42.1585 158.953 42.6006C159.459 43.0426 159.762 43.6533 159.862 44.4326ZM154.838 48.7529C154.838 49.1768 154.927 49.5824 155.104 49.9697C155.287 50.3571 155.54 50.6533 155.863 50.8584C156.187 51.0589 156.526 51.1592 156.882 51.1592C157.401 51.1592 157.848 50.9495 158.222 50.5303C158.595 50.111 158.782 49.5413 158.782 48.8213C158.782 48.1286 158.598 47.584 158.229 47.1875C157.859 46.7865 157.395 46.5859 156.834 46.5859C156.278 46.5859 155.806 46.7865 155.419 47.1875C155.032 47.584 154.838 48.1058 154.838 48.7529Z" fill="black"/>
<defs>
<clipPath id="clip0">
<rect width="232.4" height="28" fill="white"/>
</clipPath>
<clipPath id="clip1">
<rect width="232.4" height="28" fill="white" transform="translate(240.4)"/>
</clipPath>
<clipPath id="clip2">
<rect width="232.4" height="28" fill="white" transform="translate(480.8)"/>
</clipPath>
<clipPath id="clip3">
<rect width="232.4" height="28" fill="white" transform="translate(721.2)"/>
</clipPath>
</defs>
</svg>
