<svg width="954" height="28" viewBox="0 0 954 28" fill="none" xmlns="http://www.w3.org/2000/svg">
<g clip-path="url(#clip0)">
<path d="M15.979 21H14.1333V9.23877C13.689 9.6626 13.1045 10.0864 12.3799 10.5103C11.6621 10.9341 11.0161 11.252 10.4419 11.4639V9.67969C11.4741 9.19434 12.3765 8.60645 13.1489 7.91602C13.9214 7.22559 14.4683 6.55566 14.7896 5.90625H15.979V21Z" fill="#71E5FF"/>
<path d="M0 0V-0.8H-0.8V0H0ZM28 0H28.8V-0.8H28V0ZM28 28V28.8H28.8V28H28ZM0 28H-0.8V28.8H0V28ZM0 0.8H28V-0.8H0V0.8ZM27.2 0V28H28.8V0H27.2ZM28 27.2H0V28.8H28V27.2ZM0.8 28V0H-0.8V28H0.8Z" fill="black"/>
<path d="M38.2269 13.5864C38.2269 11.8091 38.408 10.3804 38.7703 9.30029C39.1395 8.21338 39.6829 7.37598 40.4007 6.78809C41.1253 6.2002 42.0345 5.90625 43.1282 5.90625C43.9349 5.90625 44.6424 6.07031 45.2508 6.39844C45.8592 6.71973 46.3616 7.18799 46.7581 7.80322C47.1546 8.41162 47.4656 9.15674 47.6912 10.0386C47.9168 10.9136 48.0296 12.0962 48.0296 13.5864C48.0296 15.3501 47.8484 16.7754 47.4861 17.8623C47.1238 18.9424 46.5804 19.7798 45.8558 20.3745C45.138 20.9624 44.2288 21.2563 43.1282 21.2563C41.679 21.2563 40.5408 20.7368 39.7137 19.6978C38.7225 18.4468 38.2269 16.4097 38.2269 13.5864ZM40.1238 13.5864C40.1238 16.0542 40.4109 17.6982 40.9852 18.5186C41.5662 19.332 42.2806 19.7388 43.1282 19.7388C43.9759 19.7388 44.6868 19.3286 45.261 18.5083C45.8421 17.688 46.1326 16.0474 46.1326 13.5864C46.1326 11.1118 45.8421 9.46777 45.261 8.6543C44.6868 7.84082 43.9691 7.43408 43.1077 7.43408C42.2601 7.43408 41.5833 7.79297 41.0775 8.51074C40.4417 9.42676 40.1238 11.1187 40.1238 13.5864Z" fill="#7F43FF"/>
<path d="M29.2 0V-0.8H28.4V0H29.2ZM57.2 0H58V-0.8H57.2V0ZM57.2 28V28.8H58V28H57.2ZM29.2 28H28.4V28.8H29.2V28ZM29.2 0.8H57.2V-0.8H29.2V0.8ZM56.4 0V28H58V0H56.4ZM57.2 27.2H29.2V28.8H57.2V27.2ZM30 28V0H28.4V28H30Z" fill="black"/>
<path d="M74.379 21H72.5333V9.23877C72.089 9.6626 71.5045 10.0864 70.7799 10.5103C70.0621 10.9341 69.4161 11.252 68.8419 11.4639V9.67969C69.8741 9.19434 70.7765 8.60645 71.5489 7.91602C72.3214 7.22559 72.8683 6.55566 73.1895 5.90625H74.379V21Z" fill="#7F43FF"/>
<path d="M58.4 0V-0.8H57.6V0H58.4ZM86.4 0H87.2V-0.8H86.4V0ZM86.4 28V28.8H87.2V28H86.4ZM58.4 28H57.6V28.8H58.4V28ZM58.4 0.8H86.4V-0.8H58.4V0.8ZM85.6 0V28H87.2V0H85.6ZM86.4 27.2H58.4V28.8H86.4V27.2ZM59.2 28V0H57.6V28H59.2Z" fill="black"/>
<path d="M96.6269 13.5864C96.6269 11.8091 96.808 10.3804 97.1703 9.30029C97.5395 8.21338 98.0829 7.37598 98.8007 6.78809C99.5253 6.2002 100.434 5.90625 101.528 5.90625C102.335 5.90625 103.042 6.07031 103.651 6.39844C104.259 6.71973 104.762 7.18799 105.158 7.80322C105.555 8.41162 105.866 9.15674 106.091 10.0386C106.317 10.9136 106.43 12.0962 106.43 13.5864C106.43 15.3501 106.248 16.7754 105.886 17.8623C105.524 18.9424 104.98 19.7798 104.256 20.3745C103.538 20.9624 102.629 21.2563 101.528 21.2563C100.079 21.2563 98.9408 20.7368 98.1137 19.6978C97.1225 18.4468 96.6269 16.4097 96.6269 13.5864ZM98.5238 13.5864C98.5238 16.0542 98.8109 17.6982 99.3852 18.5186C99.9662 19.332 100.681 19.7388 101.528 19.7388C102.376 19.7388 103.087 19.3286 103.661 18.5083C104.242 17.688 104.533 16.0474 104.533 13.5864C104.533 11.1118 104.242 9.46777 103.661 8.6543C103.087 7.84082 102.369 7.43408 101.508 7.43408C100.66 7.43408 99.9833 7.79297 99.4774 8.51074C98.8417 9.42676 98.5238 11.1187 98.5238 13.5864Z" fill="#7F43FF"/>
<path d="M87.6 0V-0.8H86.8V0H87.6ZM115.6 0H116.4V-0.8H115.6V0ZM115.6 28V28.8H116.4V28H115.6ZM87.6 28H86.8V28.8H87.6V28ZM87.6 0.8H115.6V-0.8H87.6V0.8ZM114.8 0V28H116.4V0H114.8ZM115.6 27.2H87.6V28.8H115.6V27.2ZM88.4 28V0H86.8V28H88.4Z" fill="black"/>
<path d="M132.779 21H130.933V9.23877C130.489 9.6626 129.904 10.0864 129.18 10.5103C128.462 10.9341 127.816 11.252 127.242 11.4639V9.67969C128.274 9.19434 129.176 8.60645 129.949 7.91602C130.721 7.22559 131.268 6.55566 131.59 5.90625H132.779V21Z" fill="#7F43FF"/>
<path d="M116.8 0V-0.8H116V0H116.8ZM144.8 0H145.6V-0.8H144.8V0ZM144.8 28V28.8H145.6V28H144.8ZM116.8 28H116V28.8H116.8V28ZM116.8 0.8H144.8V-0.8H116.8V0.8ZM144 0V28H145.6V0H144ZM144.8 27.2H116.8V28.8H144.8V27.2ZM117.6 28V0H116V28H117.6Z" fill="black"/>
<path d="M155.027 13.5864C155.027 11.8091 155.208 10.3804 155.57 9.30029C155.939 8.21338 156.483 7.37598 157.201 6.78809C157.925 6.2002 158.834 5.90625 159.928 5.90625C160.735 5.90625 161.442 6.07031 162.051 6.39844C162.659 6.71973 163.162 7.18799 163.558 7.80322C163.955 8.41162 164.266 9.15674 164.491 10.0386C164.717 10.9136 164.83 12.0962 164.83 13.5864C164.83 15.3501 164.648 16.7754 164.286 17.8623C163.924 18.9424 163.38 19.7798 162.656 20.3745C161.938 20.9624 161.029 21.2563 159.928 21.2563C158.479 21.2563 157.341 20.7368 156.514 19.6978C155.522 18.4468 155.027 16.4097 155.027 13.5864ZM156.924 13.5864C156.924 16.0542 157.211 17.6982 157.785 18.5186C158.366 19.332 159.081 19.7388 159.928 19.7388C160.776 19.7388 161.487 19.3286 162.061 18.5083C162.642 17.688 162.933 16.0474 162.933 13.5864C162.933 11.1118 162.642 9.46777 162.061 8.6543C161.487 7.84082 160.769 7.43408 159.908 7.43408C159.06 7.43408 158.383 7.79297 157.877 8.51074C157.242 9.42676 156.924 11.1187 156.924 13.5864Z" fill="#7F43FF"/>
<path d="M146 0V-0.8H145.2V0H146ZM174 0H174.8V-0.8H174V0ZM174 28V28.8H174.8V28H174ZM146 28H145.2V28.8H146V28ZM146 0.8H174V-0.8H146V0.8ZM173.2 0V28H174.8V0H173.2ZM174 27.2H146V28.8H174V27.2ZM146.8 28V0H145.2V28H146.8Z" fill="black"/>
<path d="M191.179 21H189.333V9.23877C188.889 9.6626 188.304 10.0864 187.58 10.5103C186.862 10.9341 186.216 11.252 185.642 11.4639V9.67969C186.674 9.19434 187.576 8.60645 188.349 7.91602C189.121 7.22559 189.668 6.55566 189.99 5.90625H191.179V21Z" fill="#7F43FF"/>
<path d="M175.2 0V-0.8H174.4V0H175.2ZM203.2 0H204V-0.8H203.2V0ZM203.2 28V28.8H204V28H203.2ZM175.2 28H174.4V28.8H175.2V28ZM175.2 0.8H203.2V-0.8H175.2V0.8ZM202.4 0V28H204V0H202.4ZM203.2 27.2H175.2V28.8H203.2V27.2ZM176 28V0H174.4V28H176Z" fill="black"/>
<path d="M213.427 13.5864C213.427 11.8091 213.608 10.3804 213.97 9.30029C214.339 8.21338 214.883 7.37598 215.601 6.78809C216.325 6.2002 217.234 5.90625 218.328 5.90625C219.135 5.90625 219.842 6.07031 220.451 6.39844C221.059 6.71973 221.562 7.18799 221.958 7.80322C222.355 8.41162 222.666 9.15674 222.891 10.0386C223.117 10.9136 223.23 12.0962 223.23 13.5864C223.23 15.3501 223.048 16.7754 222.686 17.8623C222.324 18.9424 221.78 19.7798 221.056 20.3745C220.338 20.9624 219.429 21.2563 218.328 21.2563C216.879 21.2563 215.741 20.7368 214.914 19.6978C213.922 18.4468 213.427 16.4097 213.427 13.5864ZM215.324 13.5864C215.324 16.0542 215.611 17.6982 216.185 18.5186C216.766 19.332 217.481 19.7388 218.328 19.7388C219.176 19.7388 219.887 19.3286 220.461 18.5083C221.042 17.688 221.333 16.0474 221.333 13.5864C221.333 11.1118 221.042 9.46777 220.461 8.6543C219.887 7.84082 219.169 7.43408 218.308 7.43408C217.46 7.43408 216.783 7.79297 216.277 8.51074C215.642 9.42676 215.324 11.1187 215.324 13.5864Z" fill="#7F43FF"/>
<path d="M204.4 0V-0.8H203.6V0H204.4ZM232.4 0H233.2V-0.8H232.4V0ZM232.4 28V28.8H233.2V28H232.4ZM204.4 28H203.6V28.8H204.4V28ZM204.4 0.8H232.4V-0.8H204.4V0.8ZM231.6 0V28H233.2V0H231.6ZM232.4 27.2H204.4V28.8H232.4V27.2ZM205.2 28V0H203.6V28H205.2Z" fill="black"/>
</g>
<g clip-path="url(#clip1)">
<path d="M256.379 21H254.533V9.23877C254.089 9.6626 253.504 10.0864 252.78 10.5103C252.062 10.9341 251.416 11.252 250.842 11.4639V9.67969C251.874 9.19434 252.776 8.60645 253.549 7.91602C254.321 7.22559 254.868 6.55566 255.19 5.90625H256.379V21Z" fill="#7F43FF"/>
<path d="M240.4 0V-0.8H239.6V0H240.4ZM268.4 0H269.2V-0.8H268.4V0ZM268.4 28V28.8H269.2V28H268.4ZM240.4 28H239.6V28.8H240.4V28ZM240.4 0.8H268.4V-0.8H240.4V0.8ZM267.6 0V28H269.2V0H267.6ZM268.4 27.2H240.4V28.8H268.4V27.2ZM241.2 28V0H239.6V28H241.2Z" fill="black"/>
<path d="M278.627 13.5864C278.627 11.8091 278.808 10.3804 279.17 9.30029C279.539 8.21338 280.083 7.37598 280.801 6.78809C281.525 6.2002 282.434 5.90625 283.528 5.90625C284.335 5.90625 285.042 6.07031 285.651 6.39844C286.259 6.71973 286.762 7.18799 287.158 7.80322C287.555 8.41162 287.866 9.15674 288.091 10.0386C288.317 10.9136 288.43 12.0962 288.43 13.5864C288.43 15.3501 288.248 16.7754 287.886 17.8623C287.524 18.9424 286.98 19.7798 286.256 20.3745C285.538 20.9624 284.629 21.2563 283.528 21.2563C282.079 21.2563 280.941 20.7368 280.114 19.6978C279.122 18.4468 278.627 16.4097 278.627 13.5864ZM280.524 13.5864C280.524 16.0542 280.811 17.6982 281.385 18.5186C281.966 19.332 282.681 19.7388 283.528 19.7388C284.376 19.7388 285.087 19.3286 285.661 18.5083C286.242 17.688 286.533 16.0474 286.533 13.5864C286.533 11.1118 286.242 9.46777 285.661 8.6543C285.087 7.84082 284.369 7.43408 283.508 7.43408C282.66 7.43408 281.983 7.79297 281.477 8.51074C280.842 9.42676 280.524 11.1187 280.524 13.5864Z" fill="#FF8C22"/>
<path d="M269.6 0V-0.8H268.8V0H269.6ZM297.6 0H298.4V-0.8H297.6V0ZM297.6 28V28.8H298.4V28H297.6ZM269.6 28H268.8V28.8H269.6V28ZM269.6 0.8H297.6V-0.8H269.6V0.8ZM296.8 0V28H298.4V0H296.8ZM297.6 27.2H269.6V28.8H297.6V27.2ZM270.4 28V0H268.8V28H270.4Z" fill="black"/>
<path d="M314.779 21H312.933V9.23877C312.489 9.6626 311.904 10.0864 311.18 10.5103C310.462 10.9341 309.816 11.252 309.242 11.4639V9.67969C310.274 9.19434 311.176 8.60645 311.949 7.91602C312.721 7.22559 313.268 6.55566 313.59 5.90625H314.779V21Z" fill="#FF8C22"/>
<path d="M298.8 0V-0.8H298V0H298.8ZM326.8 0H327.6V-0.8H326.8V0ZM326.8 28V28.8H327.6V28H326.8ZM298.8 28H298V28.8H298.8V28ZM298.8 0.8H326.8V-0.8H298.8V0.8ZM326 0V28H327.6V0H326ZM326.8 27.2H298.8V28.8H326.8V27.2ZM299.6 28V0H298V28H299.6Z" fill="black"/>
<path d="M337.027 13.5864C337.027 11.8091 337.208 10.3804 337.57 9.30029C337.939 8.21338 338.483 7.37598 339.201 6.78809C339.925 6.2002 340.834 5.90625 341.928 5.90625C342.735 5.90625 343.442 6.07031 344.051 6.39844C344.659 6.71973 345.162 7.18799 345.558 7.80322C345.955 8.41162 346.266 9.15674 346.491 10.0386C346.717 10.9136 346.83 12.0962 346.83 13.5864C346.83 15.3501 346.648 16.7754 346.286 17.8623C345.924 18.9424 345.38 19.7798 344.656 20.3745C343.938 20.9624 343.029 21.2563 341.928 21.2563C340.479 21.2563 339.341 20.7368 338.514 19.6978C337.522 18.4468 337.027 16.4097 337.027 13.5864ZM338.924 13.5864C338.924 16.0542 339.211 17.6982 339.785 18.5186C340.366 19.332 341.081 19.7388 341.928 19.7388C342.776 19.7388 343.487 19.3286 344.061 18.5083C344.642 17.688 344.933 16.0474 344.933 13.5864C344.933 11.1118 344.642 9.46777 344.061 8.6543C343.487 7.84082 342.769 7.43408 341.908 7.43408C341.06 7.43408 340.383 7.79297 339.877 8.51074C339.242 9.42676 338.924 11.1187 338.924 13.5864Z" fill="#FF8C22"/>
<path d="M328 0V-0.8H327.2V0H328ZM356 0H356.8V-0.8H356V0ZM356 28V28.8H356.8V28H356ZM328 28H327.2V28.8H328V28ZM328 0.8H356V-0.8H328V0.8ZM355.2 0V28H356.8V0H355.2ZM356 27.2H328V28.8H356V27.2ZM328.8 28V0H327.2V28H328.8Z" fill="black"/>
<path d="M373.179 21H371.333V9.23877C370.889 9.6626 370.305 10.0864 369.58 10.5103C368.862 10.9341 368.216 11.252 367.642 11.4639V9.67969C368.674 9.19434 369.576 8.60645 370.349 7.91602C371.121 7.22559 371.668 6.55566 371.99 5.90625H373.179V21Z" fill="#FF8C22"/>
<path d="M357.2 0V-0.8H356.4V0H357.2ZM385.2 0H386V-0.8H385.2V0ZM385.2 28V28.8H386V28H385.2ZM357.2 28H356.4V28.8H357.2V28ZM357.2 0.8H385.2V-0.8H357.2V0.8ZM384.4 0V28H386V0H384.4ZM385.2 27.2H357.2V28.8H385.2V27.2ZM358 28V0H356.4V28H358Z" fill="black"/>
<path d="M395.427 13.5864C395.427 11.8091 395.608 10.3804 395.97 9.30029C396.339 8.21338 396.883 7.37598 397.601 6.78809C398.325 6.2002 399.234 5.90625 400.328 5.90625C401.135 5.90625 401.842 6.07031 402.451 6.39844C403.059 6.71973 403.562 7.18799 403.958 7.80322C404.355 8.41162 404.666 9.15674 404.891 10.0386C405.117 10.9136 405.23 12.0962 405.23 13.5864C405.23 15.3501 405.048 16.7754 404.686 17.8623C404.324 18.9424 403.78 19.7798 403.056 20.3745C402.338 20.9624 401.429 21.2563 400.328 21.2563C398.879 21.2563 397.741 20.7368 396.914 19.6978C395.922 18.4468 395.427 16.4097 395.427 13.5864ZM397.324 13.5864C397.324 16.0542 397.611 17.6982 398.185 18.5186C398.766 19.332 399.481 19.7388 400.328 19.7388C401.176 19.7388 401.887 19.3286 402.461 18.5083C403.042 17.688 403.333 16.0474 403.333 13.5864C403.333 11.1118 403.042 9.46777 402.461 8.6543C401.887 7.84082 401.169 7.43408 400.308 7.43408C399.46 7.43408 398.783 7.79297 398.277 8.51074C397.642 9.42676 397.324 11.1187 397.324 13.5864Z" fill="#FF8C22"/>
<path d="M386.4 0V-0.8H385.6V0H386.4ZM414.4 0H415.2V-0.8H414.4V0ZM414.4 28V28.8H415.2V28H414.4ZM386.4 28H385.6V28.8H386.4V28ZM386.4 0.8H414.4V-0.8H386.4V0.8ZM413.6 0V28H415.2V0H413.6ZM414.4 27.2H386.4V28.8H414.4V27.2ZM387.2 28V0H385.6V28H387.2Z" fill="black"/>
<path d="M431.579 21H429.733V9.23877C429.289 9.6626 428.704 10.0864 427.98 10.5103C427.262 10.9341 426.616 11.252 426.042 11.4639V9.67969C427.074 9.19434 427.976 8.60645 428.749 7.91602C429.521 7.22559 430.068 6.55566 430.39 5.90625H431.579V21Z" fill="#FF8C22"/>
<path d="M415.6 0V-0.8H414.8V0H415.6ZM443.6 0H444.4V-0.8H443.6V0ZM443.6 28V28.8H444.4V28H443.6ZM415.6 28H414.8V28.8H415.6V28ZM415.6 0.8H443.6V-0.8H415.6V0.8ZM442.8 0V28H444.4V0H442.8ZM443.6 27.2H415.6V28.8H443.6V27.2ZM416.4 28V0H414.8V28H416.4Z" fill="black"/>
<path d="M453.827 13.5864C453.827 11.8091 454.008 10.3804 454.37 9.30029C454.739 8.21338 455.283 7.37598 456.001 6.78809C456.725 6.2002 457.634 5.90625 458.728 5.90625C459.535 5.90625 460.242 6.07031 460.851 6.39844C461.459 6.71973 461.962 7.18799 462.358 7.80322C462.755 8.41162 463.066 9.15674 463.291 10.0386C463.517 10.9136 463.63 12.0962 463.63 13.5864C463.63 15.3501 463.448 16.7754 463.086 17.8623C462.724 18.9424 462.18 19.7798 461.456 20.3745C460.738 20.9624 459.829 21.2563 458.728 21.2563C457.279 21.2563 456.141 20.7368 455.314 19.6978C454.322 18.4468 453.827 16.4097 453.827 13.5864ZM455.724 13.5864C455.724 16.0542 456.011 17.6982 456.585 18.5186C457.166 19.332 457.881 19.7388 458.728 19.7388C459.576 19.7388 460.287 19.3286 460.861 18.5083C461.442 17.688 461.733 16.0474 461.733 13.5864C461.733 11.1118 461.442 9.46777 460.861 8.6543C460.287 7.84082 459.569 7.43408 458.708 7.43408C457.86 7.43408 457.183 7.79297 456.677 8.51074C456.042 9.42676 455.724 11.1187 455.724 13.5864Z" fill="#FF8C22"/>
<path d="M444.8 0V-0.8H444V0H444.8ZM472.8 0H473.6V-0.8H472.8V0ZM472.8 28V28.8H473.6V28H472.8ZM444.8 28H444V28.8H444.8V28ZM444.8 0.8H472.8V-0.8H444.8V0.8ZM472 0V28H473.6V0H472ZM472.8 27.2H444.8V28.8H472.8V27.2ZM445.6 28V0H444V28H445.6Z" fill="black"/>
</g>
<g clip-path="url(#clip2)">
<path d="M496.779 21H494.933V9.23877C494.489 9.6626 493.904 10.0864 493.18 10.5103C492.462 10.9341 491.816 11.252 491.242 11.4639V9.67969C492.274 9.19434 493.176 8.60645 493.949 7.91602C494.721 7.22559 495.268 6.55566 495.59 5.90625H496.779V21Z" fill="#FF8C22"/>
<path d="M480.8 0V-0.8H480V0H480.8ZM508.8 0H509.6V-0.8H508.8V0ZM508.8 28V28.8H509.6V28H508.8ZM480.8 28H480V28.8H480.8V28ZM480.8 0.8H508.8V-0.8H480.8V0.8ZM508 0V28H509.6V0H508ZM508.8 27.2H480.8V28.8H508.8V27.2ZM481.6 28V0H480V28H481.6Z" fill="black"/>
<path d="M519.027 13.5864C519.027 11.8091 519.208 10.3804 519.57 9.30029C519.939 8.21338 520.483 7.37598 521.201 6.78809C521.925 6.2002 522.834 5.90625 523.928 5.90625C524.735 5.90625 525.442 6.07031 526.051 6.39844C526.659 6.71973 527.162 7.18799 527.558 7.80322C527.955 8.41162 528.266 9.15674 528.491 10.0386C528.717 10.9136 528.83 12.0962 528.83 13.5864C528.83 15.3501 528.648 16.7754 528.286 17.8623C527.924 18.9424 527.38 19.7798 526.656 20.3745C525.938 20.9624 525.029 21.2563 523.928 21.2563C522.479 21.2563 521.341 20.7368 520.514 19.6978C519.522 18.4468 519.027 16.4097 519.027 13.5864ZM520.924 13.5864C520.924 16.0542 521.211 17.6982 521.785 18.5186C522.366 19.332 523.081 19.7388 523.928 19.7388C524.776 19.7388 525.487 19.3286 526.061 18.5083C526.642 17.688 526.933 16.0474 526.933 13.5864C526.933 11.1118 526.642 9.46777 526.061 8.6543C525.487 7.84082 524.769 7.43408 523.908 7.43408C523.06 7.43408 522.383 7.79297 521.877 8.51074C521.242 9.42676 520.924 11.1187 520.924 13.5864Z" fill="#FF8C22"/>
<path d="M510 0V-0.8H509.2V0H510ZM538 0H538.8V-0.8H538V0ZM538 28V28.8H538.8V28H538ZM510 28H509.2V28.8H510V28ZM510 0.8H538V-0.8H510V0.8ZM537.2 0V28H538.8V0H537.2ZM538 27.2H510V28.8H538V27.2ZM510.8 28V0H509.2V28H510.8Z" fill="black"/>
<path d="M555.179 21H553.333V9.23877C552.889 9.6626 552.305 10.0864 551.58 10.5103C550.862 10.9341 550.216 11.252 549.642 11.4639V9.67969C550.674 9.19434 551.576 8.60645 552.349 7.91602C553.121 7.22559 553.668 6.55566 553.99 5.90625H555.179V21Z" fill="#FF8C22"/>
<path d="M539.2 0V-0.8H538.4V0H539.2ZM567.2 0H568V-0.8H567.2V0ZM567.2 28V28.8H568V28H567.2ZM539.2 28H538.4V28.8H539.2V28ZM539.2 0.8H567.2V-0.8H539.2V0.8ZM566.4 0V28H568V0H566.4ZM567.2 27.2H539.2V28.8H567.2V27.2ZM540 28V0H538.4V28H540Z" fill="black"/>
<path d="M577.427 13.5864C577.427 11.8091 577.608 10.3804 577.97 9.30029C578.339 8.21338 578.883 7.37598 579.601 6.78809C580.325 6.2002 581.234 5.90625 582.328 5.90625C583.135 5.90625 583.842 6.07031 584.451 6.39844C585.059 6.71973 585.562 7.18799 585.958 7.80322C586.355 8.41162 586.666 9.15674 586.891 10.0386C587.117 10.9136 587.23 12.0962 587.23 13.5864C587.23 15.3501 587.048 16.7754 586.686 17.8623C586.324 18.9424 585.78 19.7798 585.056 20.3745C584.338 20.9624 583.429 21.2563 582.328 21.2563C580.879 21.2563 579.741 20.7368 578.914 19.6978C577.922 18.4468 577.427 16.4097 577.427 13.5864ZM579.324 13.5864C579.324 16.0542 579.611 17.6982 580.185 18.5186C580.766 19.332 581.481 19.7388 582.328 19.7388C583.176 19.7388 583.887 19.3286 584.461 18.5083C585.042 17.688 585.333 16.0474 585.333 13.5864C585.333 11.1118 585.042 9.46777 584.461 8.6543C583.887 7.84082 583.169 7.43408 582.308 7.43408C581.46 7.43408 580.783 7.79297 580.277 8.51074C579.642 9.42676 579.324 11.1187 579.324 13.5864Z" fill="#FF8C22"/>
<path d="M568.4 0V-0.8H567.6V0H568.4ZM596.4 0H597.2V-0.8H596.4V0ZM596.4 28V28.8H597.2V28H596.4ZM568.4 28H567.6V28.8H568.4V28ZM568.4 0.8H596.4V-0.8H568.4V0.8ZM595.6 0V28H597.2V0H595.6ZM596.4 27.2H568.4V28.8H596.4V27.2ZM569.2 28V0H567.6V28H569.2Z" fill="black"/>
<path d="M613.579 21H611.733V9.23877C611.289 9.6626 610.704 10.0864 609.98 10.5103C609.262 10.9341 608.616 11.252 608.042 11.4639V9.67969C609.074 9.19434 609.976 8.60645 610.749 7.91602C611.521 7.22559 612.068 6.55566 612.39 5.90625H613.579V21Z" fill="#FF8C22"/>
<path d="M597.6 0V-0.8H596.8V0H597.6ZM625.6 0H626.4V-0.8H625.6V0ZM625.6 28V28.8H626.4V28H625.6ZM597.6 28H596.8V28.8H597.6V28ZM597.6 0.8H625.6V-0.8H597.6V0.8ZM624.8 0V28H626.4V0H624.8ZM625.6 27.2H597.6V28.8H625.6V27.2ZM598.4 28V0H596.8V28H598.4Z" fill="black"/>
<path d="M635.827 13.5864C635.827 11.8091 636.008 10.3804 636.37 9.30029C636.739 8.21338 637.283 7.37598 638.001 6.78809C638.725 6.2002 639.634 5.90625 640.728 5.90625C641.535 5.90625 642.242 6.07031 642.851 6.39844C643.459 6.71973 643.962 7.18799 644.358 7.80322C644.755 8.41162 645.066 9.15674 645.291 10.0386C645.517 10.9136 645.63 12.0962 645.63 13.5864C645.63 15.3501 645.448 16.7754 645.086 17.8623C644.724 18.9424 644.18 19.7798 643.456 20.3745C642.738 20.9624 641.829 21.2563 640.728 21.2563C639.279 21.2563 638.141 20.7368 637.314 19.6978C636.322 18.4468 635.827 16.4097 635.827 13.5864ZM637.724 13.5864C637.724 16.0542 638.011 17.6982 638.585 18.5186C639.166 19.332 639.881 19.7388 640.728 19.7388C641.576 19.7388 642.287 19.3286 642.861 18.5083C643.442 17.688 643.733 16.0474 643.733 13.5864C643.733 11.1118 643.442 9.46777 642.861 8.6543C642.287 7.84082 641.569 7.43408 640.708 7.43408C639.86 7.43408 639.183 7.79297 638.677 8.51074C638.042 9.42676 637.724 11.1187 637.724 13.5864Z" fill="#FF8C22"/>
<path d="M626.8 0V-0.8H626V0H626.8ZM654.8 0H655.6V-0.8H654.8V0ZM654.8 28V28.8H655.6V28H654.8ZM626.8 28H626V28.8H626.8V28ZM626.8 0.8H654.8V-0.8H626.8V0.8ZM654 0V28H655.6V0H654ZM654.8 27.2H626.8V28.8H654.8V27.2ZM627.6 28V0H626V28H627.6Z" fill="black"/>
<path d="M671.979 21H670.133V9.23877C669.689 9.6626 669.104 10.0864 668.38 10.5103C667.662 10.9341 667.016 11.252 666.442 11.4639V9.67969C667.474 9.19434 668.376 8.60645 669.149 7.91602C669.921 7.22559 670.468 6.55566 670.79 5.90625H671.979V21Z" fill="#FF8C22"/>
<path d="M656 0V-0.8H655.2V0H656ZM684 0H684.8V-0.8H684V0ZM684 28V28.8H684.8V28H684ZM656 28H655.2V28.8H656V28ZM656 0.8H684V-0.8H656V0.8ZM683.2 0V28H684.8V0H683.2ZM684 27.2H656V28.8H684V27.2ZM656.8 28V0H655.2V28H656.8Z" fill="black"/>
<path d="M694.227 13.5864C694.227 11.8091 694.408 10.3804 694.77 9.30029C695.139 8.21338 695.683 7.37598 696.401 6.78809C697.125 6.2002 698.034 5.90625 699.128 5.90625C699.935 5.90625 700.642 6.07031 701.251 6.39844C701.859 6.71973 702.362 7.18799 702.758 7.80322C703.155 8.41162 703.466 9.15674 703.691 10.0386C703.917 10.9136 704.03 12.0962 704.03 13.5864C704.03 15.3501 703.848 16.7754 703.486 17.8623C703.124 18.9424 702.58 19.7798 701.856 20.3745C701.138 20.9624 700.229 21.2563 699.128 21.2563C697.679 21.2563 696.541 20.7368 695.714 19.6978C694.722 18.4468 694.227 16.4097 694.227 13.5864ZM696.124 13.5864C696.124 16.0542 696.411 17.6982 696.985 18.5186C697.566 19.332 698.281 19.7388 699.128 19.7388C699.976 19.7388 700.687 19.3286 701.261 18.5083C701.842 17.688 702.133 16.0474 702.133 13.5864C702.133 11.1118 701.842 9.46777 701.261 8.6543C700.687 7.84082 699.969 7.43408 699.108 7.43408C698.26 7.43408 697.583 7.79297 697.077 8.51074C696.442 9.42676 696.124 11.1187 696.124 13.5864Z" fill="#FF8C22"/>
<path d="M685.2 0V-0.8H684.4V0H685.2ZM713.2 0H714V-0.8H713.2V0ZM713.2 28V28.8H714V28H713.2ZM685.2 28H684.4V28.8H685.2V28ZM685.2 0.8H713.2V-0.8H685.2V0.8ZM712.4 0V28H714V0H712.4ZM713.2 27.2H685.2V28.8H713.2V27.2ZM686 28V0H684.4V28H686Z" fill="black"/>
</g>
<g clip-path="url(#clip3)">
<path d="M737.179 21H735.333V9.23877C734.889 9.6626 734.304 10.0864 733.58 10.5103C732.862 10.9341 732.216 11.252 731.642 11.4639V9.67969C732.674 9.19434 733.576 8.60645 734.349 7.91602C735.121 7.22559 735.668 6.55566 735.99 5.90625H737.179V21Z" fill="#FF8C22"/>
<path d="M721.2 0V-0.8H720.4V0H721.2ZM749.2 0H750V-0.8H749.2V0ZM749.2 28V28.8H750V28H749.2ZM721.2 28H720.4V28.8H721.2V28ZM721.2 0.8H749.2V-0.8H721.2V0.8ZM748.4 0V28H750V0H748.4ZM749.2 27.2H721.2V28.8H749.2V27.2ZM722 28V0H720.4V28H722Z" fill="black"/>
<path d="M759.427 13.5864C759.427 11.8091 759.608 10.3804 759.97 9.30029C760.339 8.21338 760.883 7.37598 761.601 6.78809C762.325 6.2002 763.234 5.90625 764.328 5.90625C765.135 5.90625 765.842 6.07031 766.451 6.39844C767.059 6.71973 767.562 7.18799 767.958 7.80322C768.355 8.41162 768.666 9.15674 768.891 10.0386C769.117 10.9136 769.23 12.0962 769.23 13.5864C769.23 15.3501 769.048 16.7754 768.686 17.8623C768.324 18.9424 767.78 19.7798 767.056 20.3745C766.338 20.9624 765.429 21.2563 764.328 21.2563C762.879 21.2563 761.741 20.7368 760.914 19.6978C759.922 18.4468 759.427 16.4097 759.427 13.5864ZM761.324 13.5864C761.324 16.0542 761.611 17.6982 762.185 18.5186C762.766 19.332 763.481 19.7388 764.328 19.7388C765.176 19.7388 765.887 19.3286 766.461 18.5083C767.042 17.688 767.333 16.0474 767.333 13.5864C767.333 11.1118 767.042 9.46777 766.461 8.6543C765.887 7.84082 765.169 7.43408 764.308 7.43408C763.46 7.43408 762.783 7.79297 762.277 8.51074C761.642 9.42676 761.324 11.1187 761.324 13.5864Z" fill="#FF8C22"/>
<path d="M750.4 0V-0.8H749.6V0H750.4ZM778.4 0H779.2V-0.8H778.4V0ZM778.4 28V28.8H779.2V28H778.4ZM750.4 28H749.6V28.8H750.4V28ZM750.4 0.8H778.4V-0.8H750.4V0.8ZM777.6 0V28H779.2V0H777.6ZM778.4 27.2H750.4V28.8H778.4V27.2ZM751.2 28V0H749.6V28H751.2Z" fill="black"/>
<path d="M795.579 21H793.733V9.23877C793.289 9.6626 792.704 10.0864 791.98 10.5103C791.262 10.9341 790.616 11.252 790.042 11.4639V9.67969C791.074 9.19434 791.976 8.60645 792.749 7.91602C793.521 7.22559 794.068 6.55566 794.39 5.90625H795.579V21Z" fill="#FF8C22"/>
<path d="M779.6 0V-0.8H778.8V0H779.6ZM807.6 0H808.4V-0.8H807.6V0ZM807.6 28V28.8H808.4V28H807.6ZM779.6 28H778.8V28.8H779.6V28ZM779.6 0.8H807.6V-0.8H779.6V0.8ZM806.8 0V28H808.4V0H806.8ZM807.6 27.2H779.6V28.8H807.6V27.2ZM780.4 28V0H778.8V28H780.4Z" fill="black"/>
<path d="M817.827 13.5864C817.827 11.8091 818.008 10.3804 818.37 9.30029C818.739 8.21338 819.283 7.37598 820.001 6.78809C820.725 6.2002 821.634 5.90625 822.728 5.90625C823.535 5.90625 824.242 6.07031 824.851 6.39844C825.459 6.71973 825.962 7.18799 826.358 7.80322C826.755 8.41162 827.066 9.15674 827.291 10.0386C827.517 10.9136 827.63 12.0962 827.63 13.5864C827.63 15.3501 827.448 16.7754 827.086 17.8623C826.724 18.9424 826.18 19.7798 825.456 20.3745C824.738 20.9624 823.829 21.2563 822.728 21.2563C821.279 21.2563 820.141 20.7368 819.314 19.6978C818.322 18.4468 817.827 16.4097 817.827 13.5864ZM819.724 13.5864C819.724 16.0542 820.011 17.6982 820.585 18.5186C821.166 19.332 821.88 19.7388 822.728 19.7388C823.576 19.7388 824.287 19.3286 824.861 18.5083C825.442 17.688 825.733 16.0474 825.733 13.5864C825.733 11.1118 825.442 9.46777 824.861 8.6543C824.287 7.84082 823.569 7.43408 822.708 7.43408C821.86 7.43408 821.183 7.79297 820.677 8.51074C820.042 9.42676 819.724 11.1187 819.724 13.5864Z" fill="#FF8C22"/>
<path d="M808.8 0V-0.8H808V0H808.8ZM836.8 0H837.6V-0.8H836.8V0ZM836.8 28V28.8H837.6V28H836.8ZM808.8 28H808V28.8H808.8V28ZM808.8 0.8H836.8V-0.8H808.8V0.8ZM836 0V28H837.6V0H836ZM836.8 27.2H808.8V28.8H836.8V27.2ZM809.6 28V0H808V28H809.6Z" fill="black"/>
<path d="M853.979 21H852.133V9.23877C851.689 9.6626 851.104 10.0864 850.38 10.5103C849.662 10.9341 849.016 11.252 848.442 11.4639V9.67969C849.474 9.19434 850.376 8.60645 851.149 7.91602C851.921 7.22559 852.468 6.55566 852.79 5.90625H853.979V21Z" fill="#FF8C22"/>
<path d="M838 0V-0.8H837.2V0H838ZM866 0H866.8V-0.8H866V0ZM866 28V28.8H866.8V28H866ZM838 28H837.2V28.8H838V28ZM838 0.8H866V-0.8H838V0.8ZM865.2 0V28H866.8V0H865.2ZM866 27.2H838V28.8H866V27.2ZM838.8 28V0H837.2V28H838.8Z" fill="black"/>
<path d="M876.227 13.5864C876.227 11.8091 876.408 10.3804 876.77 9.30029C877.139 8.21338 877.683 7.37598 878.401 6.78809C879.125 6.2002 880.034 5.90625 881.128 5.90625C881.935 5.90625 882.642 6.07031 883.251 6.39844C883.859 6.71973 884.362 7.18799 884.758 7.80322C885.155 8.41162 885.466 9.15674 885.691 10.0386C885.917 10.9136 886.03 12.0962 886.03 13.5864C886.03 15.3501 885.848 16.7754 885.486 17.8623C885.124 18.9424 884.58 19.7798 883.856 20.3745C883.138 20.9624 882.229 21.2563 881.128 21.2563C879.679 21.2563 878.541 20.7368 877.714 19.6978C876.722 18.4468 876.227 16.4097 876.227 13.5864ZM878.124 13.5864C878.124 16.0542 878.411 17.6982 878.985 18.5186C879.566 19.332 880.281 19.7388 881.128 19.7388C881.976 19.7388 882.687 19.3286 883.261 18.5083C883.842 17.688 884.133 16.0474 884.133 13.5864C884.133 11.1118 883.842 9.46777 883.261 8.6543C882.687 7.84082 881.969 7.43408 881.108 7.43408C880.26 7.43408 879.583 7.79297 879.077 8.51074C878.442 9.42676 878.124 11.1187 878.124 13.5864Z" fill="#FF8C22"/>
<path d="M867.2 0V-0.8H866.4V0H867.2ZM895.2 0H896V-0.8H895.2V0ZM895.2 28V28.8H896V28H895.2ZM867.2 28H866.4V28.8H867.2V28ZM867.2 0.8H895.2V-0.8H867.2V0.8ZM894.4 0V28H896V0H894.4ZM895.2 27.2H867.2V28.8H895.2V27.2ZM868 28V0H866.4V28H868Z" fill="black"/>
<path d="M912.379 21H910.533V9.23877C910.089 9.6626 909.504 10.0864 908.78 10.5103C908.062 10.9341 907.416 11.252 906.842 11.4639V9.67969C907.874 9.19434 908.776 8.60645 909.549 7.91602C910.321 7.22559 910.868 6.55566 911.189 5.90625H912.379V21Z" fill="#FF8C22"/>
<path d="M896.4 0V-0.8H895.6V0H896.4ZM924.4 0H925.2V-0.8H924.4V0ZM924.4 28V28.8H925.2V28H924.4ZM896.4 28H895.6V28.8H896.4V28ZM896.4 0.8H924.4V-0.8H896.4V0.8ZM923.6 0V28H925.2V0H923.6ZM924.4 27.2H896.4V28.8H924.4V27.2ZM897.2 28V0H895.6V28H897.2Z" fill="black"/>
<path d="M934.627 13.5864C934.627 11.8091 934.808 10.3804 935.17 9.30029C935.539 8.21338 936.083 7.37598 936.801 6.78809C937.525 6.2002 938.434 5.90625 939.528 5.90625C940.335 5.90625 941.042 6.07031 941.651 6.39844C942.259 6.71973 942.762 7.18799 943.158 7.80322C943.555 8.41162 943.866 9.15674 944.091 10.0386C944.317 10.9136 944.43 12.0962 944.43 13.5864C944.43 15.3501 944.248 16.7754 943.886 17.8623C943.524 18.9424 942.98 19.7798 942.256 20.3745C941.538 20.9624 940.629 21.2563 939.528 21.2563C938.079 21.2563 936.941 20.7368 936.114 19.6978C935.122 18.4468 934.627 16.4097 934.627 13.5864ZM936.524 13.5864C936.524 16.0542 936.811 17.6982 937.385 18.5186C937.966 19.332 938.681 19.7388 939.528 19.7388C940.376 19.7388 941.087 19.3286 941.661 18.5083C942.242 17.688 942.533 16.0474 942.533 13.5864C942.533 11.1118 942.242 9.46777 941.661 8.6543C941.087 7.84082 940.369 7.43408 939.508 7.43408C938.66 7.43408 937.983 7.79297 937.477 8.51074C936.842 9.42676 936.524 11.1187 936.524 13.5864Z" fill="#FF8C22"/>
<path d="M925.6 0V-0.8H924.8V0H925.6ZM953.6 0H954.4V-0.8H953.6V0ZM953.6 28V28.8H954.4V28H953.6ZM925.6 28H924.8V28.8H925.6V28ZM925.6 0.8H953.6V-0.8H925.6V0.8ZM952.8 0V28H954.4V0H952.8ZM953.6 27.2H925.6V28.8H953.6V27.2ZM926.4 28V0H924.8V28H926.4Z" fill="black"/>
</g>
<defs>
<clipPath id="clip0">
<rect width="232.4" height="28" fill="white"/>
</clipPath>
<clipPath id="clip1">
<rect width="232.4" height="28" fill="white" transform="translate(240.4)"/>
</clipPath>
<clipPath id="clip2">
<rect width="232.4" height="28" fill="white" transform="translate(480.8)"/>
</clipPath>
<clipPath id="clip3">
<rect width="232.4" height="28" fill="white" transform="translate(721.2)"/>
</clipPath>
</defs>
</svg>
