<svg width="226" height="21" viewBox="0 0 226 21" fill="none" xmlns="http://www.w3.org/2000/svg">
<path d="M4.19238 14.7148V11.1729H0.685547V9.70508H4.19238V6.19824H5.68652V9.70508H9.19336V11.1729H5.68652V14.7148H4.19238ZM9.19336 17H0.685547V15.5234H9.19336V17Z" fill="#71E5FF"/>
<path d="M23.9502 15.4795V17H15.4336C15.4219 16.6191 15.4834 16.2529 15.6182 15.9014C15.835 15.3213 16.1807 14.75 16.6553 14.1875C17.1357 13.625 17.8271 12.9746 18.7295 12.2363C20.1299 11.0879 21.0762 10.1797 21.5684 9.51172C22.0605 8.83789 22.3066 8.20215 22.3066 7.60449C22.3066 6.97754 22.0811 6.4502 21.6299 6.02246C21.1846 5.58887 20.6016 5.37207 19.8809 5.37207C19.1191 5.37207 18.5098 5.60059 18.0527 6.05762C17.5957 6.51465 17.3643 7.14746 17.3584 7.95605L15.7324 7.78906C15.8438 6.57617 16.2627 5.65332 16.9893 5.02051C17.7158 4.38184 18.6914 4.0625 19.916 4.0625C21.1523 4.0625 22.1309 4.40527 22.8516 5.09082C23.5723 5.77637 23.9326 6.62598 23.9326 7.63965C23.9326 8.15527 23.8271 8.66211 23.6162 9.16016C23.4053 9.6582 23.0537 10.1826 22.5615 10.7334C22.0752 11.2842 21.2637 12.04 20.127 13.001C19.1777 13.7979 18.5684 14.3398 18.2988 14.627C18.0293 14.9082 17.8066 15.1924 17.6309 15.4795H23.9502ZM85.8955 13.4053L88.6641 10.6367L85.9043 7.87695L86.9766 6.80469L89.7363 9.56445L92.4873 6.81348L93.542 7.87695L90.7998 10.6279L93.5596 13.3877L92.4873 14.46L89.7275 11.7002L86.959 14.4688L85.8955 13.4053ZM106.708 17H105.126V6.91895C104.745 7.28223 104.244 7.64551 103.623 8.00879C103.008 8.37207 102.454 8.64453 101.962 8.82617V7.29688C102.847 6.88086 103.62 6.37695 104.282 5.78516C104.944 5.19336 105.413 4.61914 105.688 4.0625H106.708V17ZM111.656 17V15.1982H113.458V17H111.656ZM119.241 20.7881C118.368 19.6865 117.63 18.3975 117.026 16.9209C116.423 15.4443 116.121 13.915 116.121 12.333C116.121 10.9385 116.347 9.60254 116.798 8.3252C117.325 6.84277 118.14 5.36621 119.241 3.89551H120.375C119.666 5.11426 119.197 5.98438 118.969 6.50586C118.611 7.31445 118.33 8.1582 118.125 9.03711C117.873 10.1328 117.747 11.2344 117.747 12.3418C117.747 15.1602 118.623 17.9756 120.375 20.7881H119.241ZM221.353 20.7881H220.219C221.971 17.9756 222.847 15.1602 222.847 12.3418C222.847 11.2402 222.721 10.1475 222.469 9.06348C222.27 8.18457 221.991 7.34082 221.634 6.53223C221.405 6.00488 220.934 5.12598 220.219 3.89551H221.353C222.454 5.36621 223.269 6.84277 223.796 8.3252C224.247 9.60254 224.473 10.9385 224.473 12.333C224.473 13.915 224.168 15.4443 223.559 16.9209C222.955 18.3975 222.22 19.6865 221.353 20.7881Z" fill="black"/>
<path d="M36.167 9.95117H31.4561C31.4912 10.5664 31.6611 11.0674 31.9658 11.4541C32.3057 11.8818 32.7715 12.0957 33.3633 12.0957C34.166 12.0957 34.7227 11.665 35.0332 10.8037L36.1318 10.9355C35.7627 12.2949 34.8398 12.9746 33.3633 12.9746C32.3965 12.9746 31.6465 12.6729 31.1133 12.0693C30.6094 11.4951 30.3574 10.7158 30.3574 9.73145C30.3574 8.75293 30.6006 7.96484 31.0869 7.36719C31.6143 6.71094 32.3525 6.38281 33.3018 6.38281C34.2275 6.38281 34.9482 6.70508 35.4639 7.34961C35.9326 7.94141 36.167 8.71484 36.167 9.66992V9.95117ZM35.042 9.07227C34.9951 8.54492 34.8604 8.14648 34.6377 7.87695C34.2979 7.4668 33.8555 7.26172 33.3105 7.26172C32.7891 7.26172 32.3672 7.43164 32.0449 7.77148C31.7285 8.11133 31.5527 8.54492 31.5176 9.07227H35.042ZM42.5215 12.834H41.2119L39.5684 10.3467L37.9072 12.834H36.6152L38.918 9.55566L36.791 6.52344H38.127L39.0938 8C39.2402 8.22852 39.3867 8.46582 39.5332 8.71191C39.6387 8.55371 39.7998 8.32227 40.0166 8.01758L41.0801 6.52344H42.3545L40.1748 9.49414L42.5215 12.834ZM48.8848 9.63477C48.8848 11.0176 48.4307 11.9932 47.5225 12.5615C47.083 12.8369 46.6201 12.9746 46.1338 12.9746C45.4424 12.9746 44.8887 12.7109 44.4727 12.1836V15.251H43.4004V6.52344H44.376V7.34082C44.833 6.70215 45.4424 6.38281 46.2041 6.38281C47.3408 6.38281 48.1289 6.91309 48.5684 7.97363C48.7793 8.4834 48.8848 9.03711 48.8848 9.63477ZM47.7861 9.62598C47.7861 8.99316 47.6689 8.45996 47.4346 8.02637C47.1357 7.4873 46.6934 7.21777 46.1074 7.21777C45.5215 7.21777 45.0703 7.50195 44.7539 8.07031C44.502 8.5332 44.376 9.08105 44.376 9.71387C44.376 10.3584 44.4932 10.8887 44.7275 11.3047C45.0264 11.832 45.4717 12.0957 46.0635 12.0957C46.667 12.0957 47.1211 11.8203 47.4258 11.2695C47.666 10.8301 47.7861 10.2822 47.7861 9.62598ZM55.6787 9.59082C55.6787 11.0615 55.2012 12.0605 54.2461 12.5879C53.7773 12.8457 53.2705 12.9746 52.7256 12.9746C51.7588 12.9746 51.0146 12.6611 50.4932 12.0342C50.0068 11.4482 49.7637 10.6631 49.7637 9.67871C49.7637 8.5127 50.0889 7.64844 50.7393 7.08594C51.2842 6.61719 51.9463 6.38281 52.7256 6.38281C53.6514 6.38281 54.3809 6.69043 54.9141 7.30566C55.4238 7.88574 55.6787 8.64746 55.6787 9.59082ZM54.5801 9.64355C54.5801 8.9873 54.4395 8.44531 54.1582 8.01758C53.8301 7.51953 53.3525 7.27051 52.7256 7.27051C52.0811 7.27051 51.5977 7.52246 51.2754 8.02637C51 8.44824 50.8623 8.99902 50.8623 9.67871C50.8623 10.3584 51 10.9121 51.2754 11.3398C51.5977 11.8438 52.0811 12.0957 52.7256 12.0957C53.3701 12.0957 53.8535 11.835 54.1758 11.3135C54.4453 10.8857 54.5801 10.3291 54.5801 9.64355ZM61.8047 10.9795C61.8047 11.7822 61.4004 12.3623 60.5918 12.7197C60.2051 12.8896 59.7627 12.9746 59.2646 12.9746C57.7061 12.9746 56.8066 12.3008 56.5664 10.9531L57.6211 10.7861C57.7441 11.6592 58.2891 12.0957 59.2559 12.0957C59.6309 12.0957 59.9502 12.0254 60.2139 11.8848C60.542 11.7031 60.7061 11.4395 60.7061 11.0938C60.7061 10.8535 60.6006 10.6631 60.3896 10.5225C60.249 10.4287 59.8857 10.3086 59.2998 10.1621C58.6494 9.99805 58.2246 9.87793 58.0254 9.80176C57.5156 9.6084 57.167 9.35645 56.9795 9.0459C56.8213 8.78809 56.7422 8.50684 56.7422 8.20215C56.7422 7.62793 56.9824 7.16797 57.4629 6.82227C57.8672 6.5293 58.4004 6.38281 59.0625 6.38281C60.0996 6.38281 60.8115 6.64648 61.1982 7.17383C61.3799 7.41992 61.5029 7.74512 61.5674 8.14941L60.5215 8.29004C60.4219 7.60449 59.9619 7.26172 59.1416 7.26172C58.2334 7.26172 57.7793 7.53125 57.7793 8.07031C57.7793 8.375 57.958 8.59766 58.3154 8.73828C58.4092 8.77344 58.7256 8.86426 59.2646 9.01074C59.9795 9.2041 60.3926 9.32129 60.5039 9.3623C61.002 9.54395 61.3506 9.77832 61.5498 10.0654C61.7197 10.3115 61.8047 10.6162 61.8047 10.9795ZM68.502 12.834H67.377C67.2715 12.6172 67.2012 12.3564 67.166 12.0518C66.4395 12.667 65.666 12.9746 64.8457 12.9746C64.2305 12.9746 63.7295 12.8311 63.3428 12.5439C62.9033 12.2217 62.6836 11.7646 62.6836 11.1729C62.6836 10.54 62.9385 10.0508 63.4482 9.70508C63.6826 9.54688 63.9404 9.42969 64.2217 9.35352C64.415 9.30078 64.7314 9.24805 65.1709 9.19531C66.0322 9.08984 66.668 8.9668 67.0781 8.82617L67.0869 8.55371C67.0869 8.12012 66.9844 7.8125 66.7793 7.63086C66.5098 7.39063 66.1055 7.27051 65.5664 7.27051C65.0801 7.27051 64.7168 7.35254 64.4766 7.5166C64.2188 7.69238 64.0312 8.00879 63.9141 8.46582L62.8682 8.3252C63.0557 7.45215 63.5273 6.87793 64.2832 6.60254C64.6875 6.45605 65.165 6.38281 65.7158 6.38281C66.7178 6.38281 67.4033 6.60547 67.7725 7.05078C67.9365 7.25 68.0479 7.49316 68.1064 7.78027C68.1416 7.9502 68.1592 8.27832 68.1592 8.76465V10.1885C68.1592 11.0146 68.1621 11.4658 68.168 11.542C68.2031 12.0693 68.3145 12.5 68.502 12.834ZM67.0781 10.0566V9.66992C66.6914 9.82812 66.1084 9.96289 65.3291 10.0742C65.0771 10.1094 64.7285 10.1973 64.2832 10.3379C63.9785 10.5137 63.8262 10.7803 63.8262 11.1377C63.8262 11.8057 64.251 12.1396 65.1006 12.1396C65.9795 12.1396 66.5801 11.8027 66.9023 11.1289C67.0195 10.8828 67.0781 10.5254 67.0781 10.0566ZM69.6621 12.4385V6.59375H70.8047V7.2002C71.0449 6.95996 71.3145 6.77832 71.6133 6.65527C71.918 6.53223 72.2578 6.4707 72.6328 6.4707C73.1191 6.4707 73.5293 6.56445 73.8633 6.75195C74.1973 6.93359 74.4375 7.17383 74.584 7.47266C74.7305 7.76562 74.8037 8.23145 74.8037 8.87012V12.4385H73.5645V8.91406C73.5645 8.39844 73.4678 8.04102 73.2744 7.8418C73.0869 7.63672 72.7939 7.53418 72.3955 7.53418C71.9209 7.53418 71.5518 7.66895 71.2881 7.93848C71.0303 8.20801 70.9014 8.64746 70.9014 9.25684V12.4385H69.6621ZM79.0312 12.8252C78.7266 12.8896 78.457 12.9219 78.2227 12.9219C77.5137 12.9219 77.0625 12.6992 76.8691 12.2539C76.7812 12.0547 76.7373 11.6328 76.7373 10.9883V7.3584H75.9551V6.52344H76.7373V4.95898L77.8008 4.31738V6.52344H78.8818V7.3584H77.8008V11.0498C77.8008 11.3545 77.8301 11.5625 77.8887 11.6738C77.9707 11.8379 78.1436 11.9199 78.4072 11.9199C78.5186 11.9199 78.6768 11.9053 78.8818 11.876L79.0312 12.8252Z" fill="#7F43FF"/>
<path d="M122.212 17V7.66602H123.627V8.97559C123.92 8.51855 124.31 8.15234 124.796 7.87695C125.282 7.5957 125.836 7.45508 126.457 7.45508C127.148 7.45508 127.714 7.59863 128.153 7.88574C128.599 8.17285 128.912 8.57422 129.094 9.08984C129.832 8 130.793 7.45508 131.977 7.45508C132.902 7.45508 133.614 7.71289 134.112 8.22852C134.61 8.73828 134.859 9.52637 134.859 10.5928V17H133.286V11.1201C133.286 10.4873 133.233 10.0332 133.128 9.75781C133.028 9.47656 132.844 9.25098 132.574 9.08105C132.305 8.91113 131.988 8.82617 131.625 8.82617C130.969 8.82617 130.424 9.0459 129.99 9.48535C129.557 9.91895 129.34 10.6162 129.34 11.5771V17H127.758V10.9355C127.758 10.2324 127.629 9.70508 127.371 9.35352C127.113 9.00195 126.691 8.82617 126.105 8.82617C125.66 8.82617 125.247 8.94336 124.866 9.17773C124.491 9.41211 124.219 9.75488 124.049 10.2061C123.879 10.6572 123.794 11.3076 123.794 12.1572V17H122.212ZM143.297 15.8486C142.711 16.3467 142.146 16.6982 141.601 16.9033C141.062 17.1084 140.481 17.2109 139.86 17.2109C138.835 17.2109 138.047 16.9619 137.496 16.4639C136.945 15.96 136.67 15.3184 136.67 14.5391C136.67 14.082 136.772 13.666 136.978 13.291C137.188 12.9102 137.461 12.6055 137.795 12.377C138.135 12.1484 138.516 11.9756 138.938 11.8584C139.248 11.7764 139.717 11.6973 140.344 11.6211C141.621 11.4688 142.562 11.2871 143.165 11.0762C143.171 10.8594 143.174 10.7217 143.174 10.6631C143.174 10.0186 143.024 9.56445 142.726 9.30078C142.321 8.94336 141.721 8.76465 140.924 8.76465C140.18 8.76465 139.629 8.89648 139.271 9.16016C138.92 9.41797 138.659 9.87793 138.489 10.54L136.942 10.3291C137.083 9.66699 137.314 9.13379 137.637 8.72949C137.959 8.31934 138.425 8.00586 139.034 7.78906C139.644 7.56641 140.35 7.45508 141.152 7.45508C141.949 7.45508 142.597 7.54883 143.095 7.73633C143.593 7.92383 143.959 8.16113 144.193 8.44824C144.428 8.72949 144.592 9.08691 144.686 9.52051C144.738 9.79004 144.765 10.2764 144.765 10.9795V13.0889C144.765 14.5596 144.797 15.4912 144.861 15.8838C144.932 16.2705 145.066 16.6426 145.266 17H143.613C143.449 16.6719 143.344 16.2881 143.297 15.8486ZM143.165 12.3154C142.591 12.5498 141.729 12.749 140.581 12.9131C139.931 13.0068 139.471 13.1123 139.201 13.2295C138.932 13.3467 138.724 13.5195 138.577 13.748C138.431 13.9707 138.357 14.2197 138.357 14.4951C138.357 14.917 138.516 15.2686 138.832 15.5498C139.154 15.8311 139.623 15.9717 140.238 15.9717C140.848 15.9717 141.39 15.8398 141.864 15.5762C142.339 15.3066 142.688 14.9404 142.91 14.4775C143.08 14.1201 143.165 13.5928 143.165 12.8955V12.3154ZM147.226 17V7.66602H148.649V8.99316C149.335 7.96777 150.325 7.45508 151.62 7.45508C152.183 7.45508 152.698 7.55762 153.167 7.7627C153.642 7.96191 153.996 8.22559 154.23 8.55371C154.465 8.88184 154.629 9.27148 154.723 9.72266C154.781 10.0156 154.811 10.5283 154.811 11.2607V17H153.229V11.3223C153.229 10.6777 153.167 10.1973 153.044 9.88086C152.921 9.55859 152.701 9.30371 152.385 9.11621C152.074 8.92285 151.708 8.82617 151.286 8.82617C150.612 8.82617 150.029 9.04004 149.537 9.46777C149.051 9.89551 148.808 10.707 148.808 11.9023V17H147.226ZM160.699 15.585L160.928 16.9824C160.482 17.0762 160.084 17.123 159.732 17.123C159.158 17.123 158.713 17.0322 158.396 16.8506C158.08 16.6689 157.857 16.4316 157.729 16.1387C157.6 15.8398 157.535 15.2158 157.535 14.2666V8.89648H156.375V7.66602H157.535V5.35449L159.108 4.40527V7.66602H160.699V8.89648H159.108V14.3545C159.108 14.8057 159.135 15.0957 159.188 15.2246C159.246 15.3535 159.337 15.4561 159.46 15.5322C159.589 15.6084 159.771 15.6465 160.005 15.6465C160.181 15.6465 160.412 15.626 160.699 15.585ZM162.264 5.93457V4.11523H163.846V5.93457H162.264ZM162.264 17V7.66602H163.846V17H162.264ZM165.63 14.2139L167.194 13.9678C167.282 14.5947 167.525 15.0752 167.924 15.4092C168.328 15.7432 168.891 15.9102 169.611 15.9102C170.338 15.9102 170.877 15.7637 171.229 15.4707C171.58 15.1719 171.756 14.8232 171.756 14.4248C171.756 14.0674 171.601 13.7861 171.29 13.5811C171.073 13.4404 170.534 13.2617 169.673 13.0449C168.513 12.752 167.707 12.5 167.256 12.2891C166.811 12.0723 166.471 11.7764 166.236 11.4014C166.008 11.0205 165.894 10.6016 165.894 10.1445C165.894 9.72852 165.987 9.34473 166.175 8.99316C166.368 8.63574 166.629 8.33984 166.957 8.10547C167.203 7.92383 167.537 7.77148 167.959 7.64844C168.387 7.51953 168.844 7.45508 169.33 7.45508C170.062 7.45508 170.704 7.56055 171.255 7.77148C171.812 7.98242 172.222 8.26953 172.485 8.63281C172.749 8.99023 172.931 9.4707 173.03 10.0742L171.483 10.2852C171.413 9.80469 171.208 9.42969 170.868 9.16016C170.534 8.89062 170.06 8.75586 169.444 8.75586C168.718 8.75586 168.199 8.87598 167.889 9.11621C167.578 9.35645 167.423 9.6377 167.423 9.95996C167.423 10.165 167.487 10.3496 167.616 10.5137C167.745 10.6836 167.947 10.8242 168.223 10.9355C168.381 10.9941 168.847 11.1289 169.62 11.3398C170.739 11.6387 171.519 11.8848 171.958 12.0781C172.403 12.2656 172.752 12.541 173.004 12.9043C173.256 13.2676 173.382 13.7188 173.382 14.2578C173.382 14.7852 173.227 15.2832 172.916 15.752C172.611 16.2148 172.169 16.5752 171.589 16.833C171.009 17.085 170.353 17.2109 169.62 17.2109C168.407 17.2109 167.481 16.959 166.843 16.4551C166.21 15.9512 165.806 15.2041 165.63 14.2139ZM174.63 14.2139L176.194 13.9678C176.282 14.5947 176.525 15.0752 176.924 15.4092C177.328 15.7432 177.891 15.9102 178.611 15.9102C179.338 15.9102 179.877 15.7637 180.229 15.4707C180.58 15.1719 180.756 14.8232 180.756 14.4248C180.756 14.0674 180.601 13.7861 180.29 13.5811C180.073 13.4404 179.534 13.2617 178.673 13.0449C177.513 12.752 176.707 12.5 176.256 12.2891C175.811 12.0723 175.471 11.7764 175.236 11.4014C175.008 11.0205 174.894 10.6016 174.894 10.1445C174.894 9.72852 174.987 9.34473 175.175 8.99316C175.368 8.63574 175.629 8.33984 175.957 8.10547C176.203 7.92383 176.537 7.77148 176.959 7.64844C177.387 7.51953 177.844 7.45508 178.33 7.45508C179.062 7.45508 179.704 7.56055 180.255 7.77148C180.812 7.98242 181.222 8.26953 181.485 8.63281C181.749 8.99023 181.931 9.4707 182.03 10.0742L180.483 10.2852C180.413 9.80469 180.208 9.42969 179.868 9.16016C179.534 8.89062 179.06 8.75586 178.444 8.75586C177.718 8.75586 177.199 8.87598 176.889 9.11621C176.578 9.35645 176.423 9.6377 176.423 9.95996C176.423 10.165 176.487 10.3496 176.616 10.5137C176.745 10.6836 176.947 10.8242 177.223 10.9355C177.381 10.9941 177.847 11.1289 178.62 11.3398C179.739 11.6387 180.519 11.8848 180.958 12.0781C181.403 12.2656 181.752 12.541 182.004 12.9043C182.256 13.2676 182.382 13.7188 182.382 14.2578C182.382 14.7852 182.227 15.2832 181.916 15.752C181.611 16.2148 181.169 16.5752 180.589 16.833C180.009 17.085 179.353 17.2109 178.62 17.2109C177.407 17.2109 176.481 16.959 175.843 16.4551C175.21 15.9512 174.806 15.2041 174.63 14.2139ZM190.652 13.9941L192.287 14.1963C192.029 15.1514 191.552 15.8926 190.854 16.4199C190.157 16.9473 189.267 17.2109 188.183 17.2109C186.817 17.2109 185.733 16.792 184.931 15.9541C184.134 15.1104 183.735 13.9297 183.735 12.4121C183.735 10.8418 184.14 9.62305 184.948 8.75586C185.757 7.88867 186.806 7.45508 188.095 7.45508C189.343 7.45508 190.362 7.87988 191.153 8.72949C191.944 9.5791 192.34 10.7744 192.34 12.3154C192.34 12.4092 192.337 12.5498 192.331 12.7373H185.37C185.429 13.7627 185.719 14.5479 186.24 15.0928C186.762 15.6377 187.412 15.9102 188.191 15.9102C188.771 15.9102 189.267 15.7578 189.677 15.4531C190.087 15.1484 190.412 14.6621 190.652 13.9941ZM185.458 11.4365H190.67C190.6 10.6514 190.4 10.0625 190.072 9.66992C189.568 9.06055 188.915 8.75586 188.112 8.75586C187.386 8.75586 186.773 8.99902 186.275 9.48535C185.783 9.97168 185.511 10.6221 185.458 11.4365ZM198.677 13.1328V11.542H203.537V13.1328H198.677ZM215.815 17H214.233V6.91895C213.853 7.28223 213.352 7.64551 212.73 8.00879C212.115 8.37207 211.562 8.64453 211.069 8.82617V7.29688C211.954 6.88086 212.728 6.37695 213.39 5.78516C214.052 5.19336 214.521 4.61914 214.796 4.0625H215.815V17Z" fill="#FF8C22"/>
</svg>
